<svg height="900" viewBox="0 0 700 900" width="700" xmlns="http://www.w3.org/2000/svg"><g fill="none" fill-rule="evenodd" transform="translate(173 110)"><g transform="translate(73 230)"><path d="m92.504 95.635443-3.596.121519-3.472-.4860759-3.596.3645569-3.472-.2430379h-3.472l-3.472-.121519-3.596.121519-3.472-.243038h-3.472l-3.472.243038-3.472-.364557-3.596.7291139-3.472-.7291139-3.472.7291139-3.472-.4860759-3.596.3645569-3.472-.6075949-3.472.6075949-3.472-.4860759-3.596.6075949-3.472-.4860759-3.472.3645569-3.472-.4860759-3.596.7291139h-3.472l-3.596-.243038.124-3.6455696.248-3.5240506.124-3.5240506-.248-3.4025317v-3.5240506l-.248-3.5240507-.124-3.4025316v-3.5240506-3.5240507l.496-3.5240506-.124-3.4025316-.372-3.5240507v-3.5240506l-.248-3.4025317v-3.5240506l.868-3.5240506-.62-3.5240507v-3.4025316-3.5240506l.372-3.5240507-.372-3.5240506.496-3.4025316-.372-3.5240507v-3.5240506l-.248-3.52405065.124-3.52405063v-3.64556962l3.72.36455696 3.472-.24303797 3.472-.12151899 3.596.48607595 3.472-.60759494 3.472.24303798 3.472.36455696 3.596-.12151899 3.472.24303798 3.472-.60759494 3.472.48607595 3.472-.24303798 3.596.24303798 3.472-.72911393 3.472.60759494 3.472-.12151899 3.596-.24303797 3.472.12151899 3.472.12151898 3.472.12151899 3.596-.12151899h3.472l3.472.12151899 3.472-.12151899 3.596.12151899 3.472-.12151899.248 3.40253165v3.52405063l-.248 3.52405065-.372 3.5240506.248 3.4025317.496 3.5240506-.744 3.5240506.372 3.4025317.372 3.5240506-.744 3.5240506.62 3.5240507v3.4025316l.124 3.5240507-.744 3.5240506.744 3.4025316v3.5240507l-.248 3.5240506-.248 3.5240506.124 3.4025317.372 3.5240506-.372 3.5240506.124 3.5240507-.124 3.4025316.124 3.5240507-.124 3.5240506-.124 3.5240506z" fill="#ff4040" fill-rule="nonzero"/><path d="m92.504 95.635443-3.596.121519-3.472-.4860759-3.596.3645569-3.472-.2430379h-3.472l-3.472-.121519-3.596.121519-3.472-.243038h-3.472l-3.472.243038-3.472-.364557-3.596.7291139-3.472-.7291139-3.472.7291139-3.472-.4860759-3.596.3645569-3.472-.6075949-3.472.6075949-3.472-.4860759-3.596.6075949-3.472-.4860759-3.472.3645569-3.472-.4860759-3.596.7291139h-3.472l-3.596-.243038.124-3.6455696.248-3.5240506.124-3.5240506-.248-3.4025317v-3.5240506l-.248-3.5240507-.124-3.4025316v-3.5240506-3.5240507l.496-3.5240506-.124-3.4025316-.372-3.5240507v-3.5240506l-.248-3.4025317v-3.5240506l.868-3.5240506-.62-3.5240507v-3.4025316-3.5240506l.372-3.5240507-.372-3.5240506.496-3.4025316-.372-3.5240507v-3.5240506l-.248-3.52405065.124-3.52405063v-3.64556962l3.72.36455696 3.472-.24303797 3.472-.12151899 3.596.48607595 3.472-.60759494 3.472.24303798 3.472.36455696 3.596-.12151899 3.472.24303798 3.472-.60759494 3.472.48607595 3.472-.24303798 3.596.24303798 3.472-.72911393 3.472.60759494 3.472-.12151899 3.596-.24303797 3.472.12151899 3.472.12151898 3.472.12151899 3.596-.12151899h3.472l3.472.12151899 3.472-.12151899 3.596.12151899 3.472-.12151899.248 3.40253165v3.52405063l-.248 3.52405065-.372 3.5240506.248 3.4025317.496 3.5240506-.744 3.5240506.372 3.4025317.372 3.5240506-.744 3.5240506.62 3.5240507v3.4025316l.124 3.5240507-.744 3.5240506.744 3.4025316v3.5240507l-.248 3.5240506-.248 3.5240506.124 3.4025317.372 3.5240506-.372 3.5240506.124 3.5240507-.124 3.4025316.124 3.5240507-.124 3.5240506-.124 3.5240506z" stroke="#231f20" stroke-linejoin="bevel" stroke-width="1.2"/></g><g transform="translate(115 407)"><path d="m91.6720792 95.2708861-3.5925544.121519-3.4686733-.486076-3.5925545.364557-3.4686732-.243038h-3.4686733l-3.4686733-.121519-3.5925544.121519-3.4686733-.364557-3.4686733.121519-3.4686732.243038-3.4686733-.364557-3.5925545.729114-3.4686732-.729114-3.4686733.729114-3.4686733-.486076-3.5925544.243038-3.4686733-.486076-3.4686732.486076-3.4686733-.486076-3.5925545.729114-3.4686732-.486076-3.4686733.364557-3.4686733-.486076-3.59255442.729114-3.46867327-.121519-3.59255446-.243038.12388119-3.6455696.24776238-3.4025317.12388119-3.5240506-.37164357-3.5240506.12388119-3.4025317-.24776238-3.5240506-.12388119-3.5240507v-3.5240506-3.4025316l.49552476-3.5240507-.12388119-3.5240506-.37164357-3.4025316v-3.5240507l-.24776237-3.5240506v-3.5240506l.86716832-3.4025317-.61940595-3.5240506v-3.5240507l-.12388118-3.5240506.49552475-3.4025316-.37164357-3.5240507.49552476-3.5240506-.37164357-3.5240506v-3.4025317l-.24776237-3.52405061.12388118-3.52405063v-3.64556962l3.71643565.36455696 3.46867327-.24303798 3.46867322-.24303797 3.5925545.48607595 3.4686733-.60759494 3.4686732.36455696 3.4686733.24303798h3.4686733l3.5925544.12151899 3.4686733-.60759494 3.4686733.48607595 3.4686732-.24303798 3.5925545.24303798 3.4686732-.60759494 3.4686733.48607595 3.4686733-.12151899 3.5925544-.24303797 3.4686733.24303797h3.4686733l3.4686732.12151899 3.5925545-.12151899h3.4686733l3.4686732.12151899h3.4686733 3.5925545l3.4686732-.12151899.2477624 3.52405064v3.52405063l-.2477624 3.40253161-.3716435 3.5240507.2477623 3.5240506.4955248 3.5240506-.7432871 3.4025317.3716435 3.5240506.3716436 3.5240506-.7432871 3.4025317.6194059 3.5240506v3.5240507l.1238812 3.5240506-.7432871 3.4025316.7432871 3.5240507v3.5240506l-.2477624 3.4025316-.3716436 3.5240507.2477624 3.5240506.3716436 3.5240506-.3716436 3.5240507.1238812 3.4025316-.1238812 3.5240507.1238812 3.5240506-.1238812 3.5240506-.1238812 3.4025317z" fill="#fff" fill-rule="nonzero"/><g stroke="#231f20" stroke-linejoin="bevel" stroke-width="1.2"><path d="m91.6720792 95.2708861-3.5925544.121519-3.4686733-.486076-3.5925545.364557-3.4686732-.243038h-3.4686733l-3.4686733-.121519-3.5925544.121519-3.4686733-.364557-3.4686733.121519-3.4686732.243038-3.4686733-.364557-3.5925545.729114-3.4686732-.729114-3.4686733.729114-3.4686733-.486076-3.5925544.243038-3.4686733-.486076-3.4686732.486076-3.4686733-.486076-3.5925545.729114-3.4686732-.486076-3.4686733.364557-3.4686733-.486076-3.59255442.729114-3.46867327-.121519-3.59255446-.243038.12388119-3.6455696.24776238-3.4025317.12388119-3.5240506-.37164357-3.5240506.12388119-3.4025317-.24776238-3.5240506-.12388119-3.5240507v-3.5240506-3.4025316l.49552476-3.5240507-.12388119-3.5240506-.37164357-3.4025316v-3.5240507l-.24776237-3.5240506v-3.5240506l.86716832-3.4025317-.61940595-3.5240506v-3.5240507l-.12388118-3.5240506.49552475-3.4025316-.37164357-3.5240507.49552476-3.5240506-.37164357-3.5240506v-3.4025317l-.24776237-3.52405061.12388118-3.52405063v-3.64556962l3.71643565.36455696 3.46867327-.24303798 3.46867322-.24303797 3.5925545.48607595 3.4686733-.60759494 3.4686732.36455696 3.4686733.24303798h3.4686733l3.5925544.12151899 3.4686733-.60759494 3.4686733.48607595 3.4686732-.24303798 3.5925545.24303798 3.4686732-.60759494 3.4686733.48607595 3.4686733-.12151899 3.5925544-.24303797 3.4686733.24303797h3.4686733l3.4686732.12151899 3.5925545-.12151899h3.4686733l3.4686732.12151899h3.4686733 3.5925545l3.4686732-.12151899.2477624 3.52405064v3.52405063l-.2477624 3.40253161-.3716435 3.5240507.2477623 3.5240506.4955248 3.5240506-.7432871 3.4025317.3716435 3.5240506.3716436 3.5240506-.7432871 3.4025317.6194059 3.5240506v3.5240507l.1238812 3.5240506-.7432871 3.4025316.7432871 3.5240507v3.5240506l-.2477624 3.4025316-.3716436 3.5240507.2477624 3.5240506.3716436 3.5240506-.3716436 3.5240507.1238812 3.4025316-.1238812 3.5240507.1238812 3.5240506-.1238812 3.5240506-.1238812 3.4025317z"/><path d="m24.9001188 49.2151899-2.6015049-2.6734177-2.4776238-2.6734178-2.7253861-2.4303797-2.601505-2.5518988 2.7253861-2.3088607 2.2298614-3.0379747 2.7253862-2.4303797 2.4776237-2.6734178"/><path d="m66.0286733 28.435443 2.7253861 2.5518988 2.3537426 2.9164557 2.9731485 2.1873417 2.7253861 2.7949367-3.2209109 2.4303798-2.4776237 2.6734177-2.601505 2.6734177-2.7253861 2.4303798"/><g transform="translate(29.731485 22.894694)"><path d="m30.1031287 29.7230272-1.2388119-3.5240506-1.982099-3.1594937-1.982099-3.0379747-1.6104554-3.4025316-1.4865743-3.2810127-1.6104554-3.40253163-1.982099-3.03797469-1.6104555-3.40253164-1.4865742-3.40253165-1.6104555 3.40253165-2.1059802 3.03797468-1.3626931 3.40253165-1.36269303 3.40253163-2.1059802 3.0379747-1.23881188 3.5240506-1.98209901 3.1594937-1.48657426 3.4025316-1.61045544 3.2810127"/><path d="m4.70748515 20.9736601 3.46867327-.4860759 3.46867328-.121519h3.4686733l3.5925544.243038 3.4686733.3645569 3.4686732-.4860759"/></g></g></g><g stroke="#231f20" stroke-linejoin="bevel" stroke-width="1.2" transform="translate(48 230)"><path d="m.73636364.84552632 3.31363636 1.44947368 2.82272727 2.17421053 3.31363633 1.44947368 3.4363637 1.08710526 3.3136363 1.32868421 2.8227273 2.17421052 3.4363636 1.0871053 3.0681819 1.6910526 3.1909091 1.5702632 3.190909 1.6910526 3.1909091 1.3286842 3.4363637 1.2078947 3.3136363 1.2078948 3.0681819 1.9326316 3.3136363 1.3286842 3.1909091 1.5702631 3.1909091 1.5702632 3.3136364 1.0871052 3.1909091 1.6910527 3.0681818 1.9326316 3.0681818 1.6910526 3.1909091 1.4494737 3.5590909 1.0871052 3.1909091 1.4494737 2.9454545 2.0534211"/><path d="m20.6181818 32.9755263 3.5590909.4831579 3.5590909.6039474 3.4363637.8455263 3.5590909.8455263 3.5590909.6039474 3.5590909.6039473 3.4363636.6039474 3.5590909.7247369 3.4363637 1.0871052 3.5590909.8455263 3.5590909.4831579 3.4363636 1.0871053 3.5590909.2415789 3.559091.8455264 3.4363636.8455263 3.5590909.8455263 3.5590909.3623684"/></g><g transform="translate(119 211)"><path d="m91.6283564 95.756962-3.5925544.121519-3.5925545-.4860759-3.4686732.3645569-3.4686733-.2430379h-3.4686733l-3.5925544-.121519-3.4686733.121519-3.4686733-.243038h-3.4686732l-3.5925545.243038-3.4686733-.364557-3.4686732.7291139-3.4686733-.7291139-3.4686733.7291139-3.5925544-.4860759-3.4686733.3645569-3.4686732-.6075949-3.4686733.6075949-3.5925545-.4860759-3.4686732.6075949-3.4686733-.4860759-3.4686733.3645569-3.5925544-.3645569-3.4686733.6075949h-3.46867326l-3.71643565-.243038.24776238-3.6455696.24776238-3.5240506.12388118-3.4025317-.37164356-3.5240506v-3.5240506l-.12388119-3.5240507-.24776238-3.4025316.12388119-3.5240507v-3.5240506l.49552476-3.5240506-.12388119-3.4025317-.37164357-3.5240506-.12388119-3.5240506-.12388118-3.4025317v-3.5240506l.74328713-3.5240506-.61940595-3.5240507.12388119-3.4025316-.12388119-3.5240507.37164357-3.5240506-.24776238-3.5240506.49552476-3.4025317-.37164357-3.5240506-.12388119-3.5240506-.12388119-3.52405066.12388119-3.52405063v-3.64556962l3.71643565.36455696 3.46867326-.24303798 3.4686733-.12151898 3.4686732.48607595 3.4686733-.60759494 3.5925545.24303797 3.4686732.36455697 3.4686733-.12151899 3.4686733.24303797 3.5925544-.60759493 3.4686733.48607595 3.4686733-.24303798 3.4686732.24303798 3.5925545-.72911393 3.4686732.60759494 3.4686733-.12151899 3.4686733-.24303797 3.5925544.12151898 3.4686733.12151899 3.4686733.12151899 3.4686732-.12151899h3.5925545l3.4686733.12151899 3.4686732-.12151899 3.4686733.12151899 3.5925544-.12151899.2477624 3.40253165-.1238812 3.52405063-.1238812 3.52405066-.3716435 3.5240506.1238812 3.4025317.4955247 3.5240506-.6194059 3.5240506.2477624 3.4025317.4955247 3.5240506-.7432871 3.5240506.6194059 3.5240507v3.4025316l.1238812 3.5240506-.7432871 3.5240507.7432871 3.5240506v3.4025317l-.2477624 3.5240506-.3716435 3.5240506.2477623 3.4025317.2477624 3.5240506-.2477624 3.5240506.1238812 3.5240507-.2477623 3.5240506.2477623 3.4025316-.1238812 3.5240507-.1238811 3.5240506z" fill="#fff" fill-rule="nonzero"/><path d="m91.6283564 95.756962-3.5925544.121519-3.5925545-.4860759-3.4686732.3645569-3.4686733-.2430379h-3.4686733l-3.5925544-.121519-3.4686733.121519-3.4686733-.243038h-3.4686732l-3.5925545.243038-3.4686733-.364557-3.4686732.7291139-3.4686733-.7291139-3.4686733.7291139-3.5925544-.4860759-3.4686733.3645569-3.4686732-.6075949-3.4686733.6075949-3.5925545-.4860759-3.4686732.6075949-3.4686733-.4860759-3.4686733.3645569-3.5925544-.3645569-3.4686733.6075949h-3.46867326l-3.71643565-.243038.24776238-3.6455696.24776238-3.5240506.12388118-3.4025317-.37164356-3.5240506v-3.5240506l-.12388119-3.5240507-.24776238-3.4025316.12388119-3.5240507v-3.5240506l.49552476-3.5240506-.12388119-3.4025317-.37164357-3.5240506-.12388119-3.5240506-.12388118-3.4025317v-3.5240506l.74328713-3.5240506-.61940595-3.5240507.12388119-3.4025316-.12388119-3.5240507.37164357-3.5240506-.24776238-3.5240506.49552476-3.4025317-.37164357-3.5240506-.12388119-3.5240506-.12388119-3.52405066.12388119-3.52405063v-3.64556962l3.71643565.36455696 3.46867326-.24303798 3.4686733-.12151898 3.4686732.48607595 3.4686733-.60759494 3.5925545.24303797 3.4686732.36455697 3.4686733-.12151899 3.4686733.24303797 3.5925544-.60759493 3.4686733.48607595 3.4686733-.24303798 3.4686732.24303798 3.5925545-.72911393 3.4686732.60759494 3.4686733-.12151899 3.4686733-.24303797 3.5925544.12151898 3.4686733.12151899 3.4686733.12151899 3.4686732-.12151899h3.5925545l3.4686733.12151899 3.4686732-.12151899 3.4686733.12151899 3.5925544-.12151899.2477624 3.40253165-.1238812 3.52405063-.1238812 3.52405066-.3716435 3.5240506.1238812 3.4025317.4955247 3.5240506-.6194059 3.5240506.2477624 3.4025317.4955247 3.5240506-.7432871 3.5240506.6194059 3.5240507v3.4025316l.1238812 3.5240506-.7432871 3.5240507.7432871 3.5240506v3.4025317l-.2477624 3.5240506-.3716435 3.5240506.2477623 3.4025317.2477624 3.5240506-.2477624 3.5240506.1238812 3.5240507-.2477623 3.5240506.2477623 3.4025316-.1238812 3.5240507-.1238811 3.5240506z" stroke="#231f20" stroke-linejoin="bevel" stroke-width="1.2"/></g><g transform="translate(162.358416 236.325074)"><path d="m11.9727525 11.8597361-3.96419804.1215189-3.84031684-.2430379-4.0880792-.121519.24776237-3.88860761v-3.7670886-3.8886076" fill="#fff" fill-rule="nonzero"/><path d="m11.9727525 11.8597361-3.96419804.1215189-3.84031684-.2430379-4.0880792-.121519.24776237-3.88860761v-3.7670886-3.8886076" stroke="#231f20" stroke-linejoin="bevel" stroke-width="1.2"/></g><g transform="translate(176.313267 236.325074)"><path d="m12.3881188 11.3736601-3.84031682-.121519h-3.96419802l-3.59255445.121519.12388118-3.64556961-.61940594-3.7670886.37164357-3.8886076" fill="#fff" fill-rule="nonzero"/><path d="m12.3881188 11.3736601-3.84031682-.121519h-3.96419802l-3.59255445.121519.12388118-3.64556961-.61940594-3.7670886.37164357-3.8886076" stroke="#231f20" stroke-linejoin="bevel" stroke-width="1.2"/></g><g transform="translate(146.581782 235.303797)"><path d="m12.7597624 12.2734177h-3.84031686l-3.96419802.486076-4.21196039.121519.37164356-4.13164561-.24776237-3.76708861.12388119-3.88860759h3.96419801l3.96419802-.48607595 3.84031686.24303797" fill="#fff" fill-rule="nonzero"/><path d="m12.7597624 12.2734177h-3.84031686l-3.96419802.486076-4.21196039.121519.37164356-4.13164561-.24776237-3.76708861.12388119-3.88860759h3.96419801l3.96419802-.48607595 3.84031686.24303797" stroke="#231f20" stroke-linejoin="bevel" stroke-width="1.2"/></g><g transform="translate(147.614125 241.379746)"><path d="m.08258746 1.09367089 3.84031683-.48607595 3.96419802.24303797 3.84031679.12151899" fill="#fff" fill-rule="nonzero"/><path d="m.08258746 1.09367089 3.84031683-.48607595 3.96419802.24303797 3.84031679.12151899" stroke="#231f20" stroke-linejoin="bevel" stroke-width="1.2"/></g><g transform="translate(130.149307 236.325074)"><path d="m.82344555 11.6166981-.12388119-3.88860761-.49552476-3.7670886-.12388118-3.8886076" fill="#fff" fill-rule="nonzero"/><path d="m.82344555 11.6166981-.12388119-3.88860761-.49552476-3.7670886-.12388118-3.8886076" stroke="#231f20" stroke-linejoin="bevel" stroke-width="1.2"/></g><g transform="translate(141.626535 236.325074)"><path d="m.61940594.07239429.37164357 3.8886076v3.7670886l.12388118 3.88860761" fill="#fff" fill-rule="nonzero"/><path d="m.61940594.07239429.37164357 3.8886076v3.7670886l.12388118 3.88860761" stroke="#231f20" stroke-linejoin="bevel" stroke-width="1.2"/></g><g transform="translate(130.477228 241.379747)"><path d="m.12388119 1.09367089 3.84031683-.60759494 3.96419802.12151899 3.84031686.12151898" fill="#fff" fill-rule="nonzero"/><path d="m.12388119 1.09367089 3.84031683-.60759494 3.96419802.12151899 3.84031686.12151898" stroke="#231f20" stroke-linejoin="bevel" stroke-width="1.2"/></g><g transform="translate(189.940198 235.303797)"><path d="m12.1403564 6.80506329-.4955247 3.03797468-2.35374259 2.06582283-2.84926733.6075949v-.243038l-2.97314851-.4860759-2.22986139-2.06582281-.61940594-2.9164557h.12388119l.49552475-2.79493671 2.1059802-2.30886076 3.0970297-.9721519v.12151899l2.84926733 1.09367089 2.10598019 2.06582278.9910495 2.79493671z" fill="#fff" fill-rule="nonzero"/><path d="m12.1403564 6.80506329-.4955247 3.03797468-2.35374259 2.06582283-2.84926733.6075949v-.243038l-2.97314851-.4860759-2.22986139-2.06582281-.61940594-2.9164557h.12388119l.49552475-2.79493671 2.1059802-2.30886076 3.0970297-.9721519v.12151899l2.84926733 1.09367089 2.10598019 2.06582278.9910495 2.79493671z" stroke="#231f20" stroke-linejoin="bevel" stroke-width="1.2"/></g><g transform="translate(84 302)"><path d="m91.6692135 95.0278481-3.5973034.121519-3.5973034-.486076-3.4732584.364557-3.4732584-.243038h-3.4732584l-3.5973034-.121519-3.4732584.121519-3.4732585-.2430379h-3.4732584l-3.4732584.2430379-3.5973034-.3645569-3.4732584.7291139-3.4732584-.7291139-3.4732585.7291139-3.5973033-.486076-3.4732585.364557-3.4732584-.6075949-3.4732584.6075949-3.5973034-.4860759-3.4732584.6075949-3.4732584-.486076-3.4732585.364557-3.5973033-.4860759-3.47325847.7291139h-3.47325843l-3.72134831-.243038.24808989-3.6455696.24808988-3.5240507.12404495-3.5240506-.37213483-3.4025316v-3.5240507l-.12404495-3.5240506-.12404494-3.4025316v-3.5240507-3.5240506l.49617977-3.5240506-.12404494-3.4025317-.37213483-3.5240506-.12404495-3.5240507-.12404494-3.4025316v-3.5240506l.74426966-3.5240507-.62022472-3.5240506.12404495-3.4025316-.12404495-3.5240507.37213484-3.5240506-.24808989-3.5240506.49617977-3.4025317-.37213483-3.5240506-.12404494-3.5240507-.12404495-3.52405058.12404495-3.52405064v-3.64556962l3.72134831.36455696 3.47325843-.24303797 3.47325847-.12151899 3.4732584.48607595 3.5973034-.60759493 3.4732584.24303797 3.4732584.36455696 3.4732584-.12151899 3.4732585.24303798 3.5973033-.60759494 3.4732585.48607595 3.4732584-.24303797 3.4732584.24303797 3.5973034-.72911392 3.4732584.60759493 3.4732584-.12151898 3.4732585-.24303798 3.5973033.12151899 3.4732585.12151899 3.4732584.12151898 3.4732584-.12151898h3.5973034l3.4732584.12151898 3.4732584-.12151898 3.5973034.12151898 3.4732584-.12151898.2480899 3.40253164-.1240449 3.52405064-.124045 3.52405058-.3721348 3.5240507.124045 3.4025316.4961797 3.5240507-.6202247 3.5240506.2480899 3.4025316.4961798 3.5240507-.7442697 3.5240506.6202247 3.5240506v3.4025317l.124045 3.5240506-.7442697 3.5240506.7442697 3.4025317v3.5240506l-.2480899 3.5240507-.3721348 3.5240506.2480898 3.4025316.2480899 3.5240507-.2480899 3.5240506.124045 3.5240506-.2480899 3.4025317.2480899 3.5240506-.124045 3.5240506-.1240449 3.5240507z" fill="#fff" fill-rule="nonzero"/><path d="m91.6692135 95.0278481-3.5973034.121519-3.5973034-.486076-3.4732584.364557-3.4732584-.243038h-3.4732584l-3.5973034-.121519-3.4732584.121519-3.4732585-.2430379h-3.4732584l-3.4732584.2430379-3.5973034-.3645569-3.4732584.7291139-3.4732584-.7291139-3.4732585.7291139-3.5973033-.486076-3.4732585.364557-3.4732584-.6075949-3.4732584.6075949-3.5973034-.4860759-3.4732584.6075949-3.4732584-.486076-3.4732585.364557-3.5973033-.4860759-3.47325847.7291139h-3.47325843l-3.72134831-.243038.24808989-3.6455696.24808988-3.5240507.12404495-3.5240506-.37213483-3.4025316v-3.5240507l-.12404495-3.5240506-.12404494-3.4025316v-3.5240507-3.5240506l.49617977-3.5240506-.12404494-3.4025317-.37213483-3.5240506-.12404495-3.5240507-.12404494-3.4025316v-3.5240506l.74426966-3.5240507-.62022472-3.5240506.12404495-3.4025316-.12404495-3.5240507.37213484-3.5240506-.24808989-3.5240506.49617977-3.4025317-.37213483-3.5240506-.12404494-3.5240507-.12404495-3.52405058.12404495-3.52405064v-3.64556962l3.72134831.36455696 3.47325843-.24303797 3.47325847-.12151899 3.4732584.48607595 3.5973034-.60759493 3.4732584.24303797 3.4732584.36455696 3.4732584-.12151899 3.4732585.24303798 3.5973033-.60759494 3.4732585.48607595 3.4732584-.24303797 3.4732584.24303797 3.5973034-.72911392 3.4732584.60759493 3.4732584-.12151898 3.4732585-.24303798 3.5973033.12151899 3.4732585.12151899 3.4732584.12151898 3.4732584-.12151898h3.5973034l3.4732584.12151898 3.4732584-.12151898 3.5973034.12151898 3.4732584-.12151898.2480899 3.40253164-.1240449 3.52405064-.124045 3.52405058-.3721348 3.5240507.124045 3.4025316.4961797 3.5240507-.6202247 3.5240506.2480899 3.4025316.4961798 3.5240507-.7442697 3.5240506.6202247 3.5240506v3.4025317l.124045 3.5240506-.7442697 3.5240506.7442697 3.4025317v3.5240506l-.2480899 3.5240507-.3721348 3.5240506.2480898 3.4025316.2480899 3.5240507-.2480899 3.5240506.124045 3.5240506-.2480899 3.4025317.2480899 3.5240506-.124045 3.5240506-.1240449 3.5240507z" stroke="#231f20" stroke-linejoin="bevel" stroke-width="1.2"/></g><g transform="translate(92 295)"><path d="m91.6692135 95.6815889-3.5973034.1224071-3.5973034-.4896286-3.4732584.3672215-3.4732584-.2448143h-3.4732584l-3.5973034-.1224072-3.4732584.1224072-3.4732585-.3672215-3.4732584.1224072-3.4732584.2448143-3.5973034-.3672215-3.4732584.7344429-3.4732584-.7344429-3.4732585.7344429-3.5973033-.4896286-3.4732585.2448143-3.4732584-.4896286-3.4732584.4896286-3.5973034-.3672214-3.4732584.6120357-3.4732584-.4896286-3.4732585.3672215-3.5973033-.4896286-3.47325847.7344429-3.47325843-.1224072-3.72134831-.2448143.24808989-3.5498073.24808988-3.5498074.12404495-3.5498073-.37213483-3.5498074v-3.4274002l-.12404495-3.5498073-.12404494-3.5498074v-3.4274002-3.5498073l.49617977-3.5498074-.12404494-3.5498073-.37213483-3.4274002-.12404495-3.5498074-.12404494-3.5498073v-3.4274002l.74426966-3.5498073-.62022472-3.5498074.12404495-3.5498073-.12404495-3.4274002.37213484-3.5498074-.24808989-3.5498073.49617977-3.5498074-.37213483-3.4274002-.12404494-3.5498073-.12404495-3.54980739.12404495-3.54980734v-3.6722145l3.72134831.36722145 3.47325843-.2448143 3.47325847-.2448143 3.4732584.4896286 3.5973034-.4896286 3.4732584.2448143 3.4732584.2448143h3.4732584l3.4732585.12240715 3.5973033-.4896286 3.4732585.4896286 3.4732584-.2448143 3.4732584.2448143 3.5973034-.7344429 3.4732584.4896286 3.4732584-.12240715 3.4732585-.12240715 3.5973033.12240715h3.4732585l3.4732584.2448143 3.4732584-.12240715 3.5973034-.12240715 3.4732584.2448143 3.4732584-.12240715h3.4732585l3.5973033-.12240715.2480899 3.54980735-.1240449 3.54980734-.124045 3.54980739-.3721348 3.4274002.124045 3.5498073.4961797 3.5498074-.6202247 3.4274002.2480899 3.5498073.4961798 3.5498074-.7442697 3.5498073.6202247 3.4274002v3.5498073l.124045 3.5498074-.7442697 3.4274002.7442697 3.5498073v3.5498074l-.2480899 3.5498073-.3721348 3.4274002.2480898 3.5498074.2480899 3.5498073-.2480899 3.5498074.124045 3.4274002-.2480899 3.5498073.2480899 3.5498074-.124045 3.5498073-.1240449 3.5498074z" fill="#ffe74a" fill-rule="nonzero"/><path d="m91.6692135 95.6815889-3.5973034.1224071-3.5973034-.4896286-3.4732584.3672215-3.4732584-.2448143h-3.4732584l-3.5973034-.1224072-3.4732584.1224072-3.4732585-.3672215-3.4732584.1224072-3.4732584.2448143-3.5973034-.3672215-3.4732584.7344429-3.4732584-.7344429-3.4732585.7344429-3.5973033-.4896286-3.4732585.2448143-3.4732584-.4896286-3.4732584.4896286-3.5973034-.3672214-3.4732584.6120357-3.4732584-.4896286-3.4732585.3672215-3.5973033-.4896286-3.47325847.7344429-3.47325843-.1224072-3.72134831-.2448143.24808989-3.5498073.24808988-3.5498074.12404495-3.5498073-.37213483-3.5498074v-3.4274002l-.12404495-3.5498073-.12404494-3.5498074v-3.4274002-3.5498073l.49617977-3.5498074-.12404494-3.5498073-.37213483-3.4274002-.12404495-3.5498074-.12404494-3.5498073v-3.4274002l.74426966-3.5498073-.62022472-3.5498074.12404495-3.5498073-.12404495-3.4274002.37213484-3.5498074-.24808989-3.5498073.49617977-3.5498074-.37213483-3.4274002-.12404494-3.5498073-.12404495-3.54980739.12404495-3.54980734v-3.6722145l3.72134831.36722145 3.47325843-.2448143 3.47325847-.2448143 3.4732584.4896286 3.5973034-.4896286 3.4732584.2448143 3.4732584.2448143h3.4732584l3.4732585.12240715 3.5973033-.4896286 3.4732585.4896286 3.4732584-.2448143 3.4732584.2448143 3.5973034-.7344429 3.4732584.4896286 3.4732584-.12240715 3.4732585-.12240715 3.5973033.12240715h3.4732585l3.4732584.2448143 3.4732584-.12240715 3.5973034-.12240715 3.4732584.2448143 3.4732584-.12240715h3.4732585l3.5973033-.12240715.2480899 3.54980735-.1240449 3.54980734-.124045 3.54980739-.3721348 3.4274002.124045 3.5498073.4961797 3.5498074-.6202247 3.4274002.2480899 3.5498073.4961798 3.5498074-.7442697 3.5498073.6202247 3.4274002v3.5498073l.124045 3.5498074-.7442697 3.4274002.7442697 3.5498073v3.5498074l-.2480899 3.5498073-.3721348 3.4274002.2480898 3.5498074.2480899 3.5498073-.2480899 3.5498074.124045 3.4274002-.2480899 3.5498073.2480899 3.5498074-.124045 3.5498073-.1240449 3.5498074z" stroke="#231f20" stroke-linejoin="bevel" stroke-width="1.2"/></g><g transform="translate(154 256)"><path d="m92.628 95.2708861-3.72.243038-3.472-.486076-3.596.364557-3.472-.243038h-3.472l-3.472-.243038-3.596.243038-3.472-.364557h-3.472l-3.472.243038-3.472-.243038-3.596.607595-3.472-.607595-3.472.607595-3.472-.364557-3.596.243038-3.472-.486076-3.472.486076-3.472-.486076-3.596.729114-3.472-.486076-3.472.364557-3.472-.486076-3.596.7291139-3.472-.1215189-3.596-.243038.124-3.6455696.372-3.4025317v-3.5240506l-.248-3.5240507v-3.5240506l-.248-3.4025316-.124-3.5240507v-3.5240506-3.5240506l.496-3.4025317-.124-3.5240506-.372-3.5240506v-3.4025317l-.248-3.5240506v-3.5240507l.868-3.5240506-.62-3.4025316v-3.5240507-3.5240506l.372-3.5240506-.372-3.4025317.496-3.5240506-.372-3.5240506v-3.5240507l-.248-3.40253162.124-3.52405064v-3.64556962l3.72.36455697 3.472-.36455697 3.472-.12151898 3.596.48607595 3.472-.60759494 3.472.36455696 3.472.24303798h3.596l3.472.12151898 3.472-.60759493 3.472.48607595 3.472-.24303798 3.596.24303798 3.472-.60759494 3.472.48607595 3.472-.12151899 3.596-.24303797 3.472.12151898 3.472.12151899 3.472.12151899 3.596-.12151899h3.472l3.472.12151899h3.472 3.596l3.472-.12151899.248 3.52405063v3.40253165l-.248 3.52405061-.372 3.5240507.248 3.5240506.496 3.4025316-.744 3.5240507.372 3.5240506.372 3.5240506-.744 3.4025317.62 3.5240506v3.5240506l.124 3.4025317-.744 3.5240506.868 3.5240507-.124 3.5240506-.248 3.4025316-.248 3.5240507.124 3.5240506.372 3.5240506-.372 3.4025317.124 3.5240506-.124 3.5240506.124 3.5240507v3.4025316l-.248 3.5240507z" fill="#fff" fill-rule="nonzero"/><path d="m92.628 95.2708861-3.72.243038-3.472-.486076-3.596.364557-3.472-.243038h-3.472l-3.472-.243038-3.596.243038-3.472-.364557h-3.472l-3.472.243038-3.472-.243038-3.596.607595-3.472-.607595-3.472.607595-3.472-.364557-3.596.243038-3.472-.486076-3.472.486076-3.472-.486076-3.596.729114-3.472-.486076-3.472.364557-3.472-.486076-3.596.7291139-3.472-.1215189-3.596-.243038.124-3.6455696.372-3.4025317v-3.5240506l-.248-3.5240507v-3.5240506l-.248-3.4025316-.124-3.5240507v-3.5240506-3.5240506l.496-3.4025317-.124-3.5240506-.372-3.5240506v-3.4025317l-.248-3.5240506v-3.5240507l.868-3.5240506-.62-3.4025316v-3.5240507-3.5240506l.372-3.5240506-.372-3.4025317.496-3.5240506-.372-3.5240506v-3.5240507l-.248-3.40253162.124-3.52405064v-3.64556962l3.72.36455697 3.472-.36455697 3.472-.12151898 3.596.48607595 3.472-.60759494 3.472.36455696 3.472.24303798h3.596l3.472.12151898 3.472-.60759493 3.472.48607595 3.472-.24303798 3.596.24303798 3.472-.60759494 3.472.48607595 3.472-.12151899 3.596-.24303797 3.472.12151898 3.472.12151899 3.472.12151899 3.596-.12151899h3.472l3.472.12151899h3.472 3.596l3.472-.12151899.248 3.52405063v3.40253165l-.248 3.52405061-.372 3.5240507.248 3.5240506.496 3.4025316-.744 3.5240507.372 3.5240506.372 3.5240506-.744 3.4025317.62 3.5240506v3.5240506l.124 3.4025317-.744 3.5240506.868 3.5240507-.124 3.5240506-.248 3.4025316-.248 3.5240507.124 3.5240506.372 3.5240506-.372 3.4025317.124 3.5240506-.124 3.5240506.124 3.5240507v3.4025316l-.248 3.5240507z" stroke="#231f20" stroke-linejoin="bevel" stroke-width="1.2"/></g><g transform="translate(144 269)"><path d="m91.6283564 95.1493671-3.7164356.243038-3.4686733-.486076-3.4686732.364557-3.4686733-.243038h-3.4686733l-3.5925544-.243038-3.4686733.243038-3.4686733-.364557h-3.4686732l-3.5925545.243038-3.4686733-.243038-3.4686732.607595-3.4686733-.607595-3.5925544.607595-3.4686733-.364557-3.4686733.243038-3.4686732-.486076-3.5925545.486076-3.4686733-.486076-3.4686732.729114-3.4686733-.486076-3.5925545.364557-3.4686732-.486076-3.4686733.607595h-3.46867326l-3.71643565-.243038.24776238-3.6455696.24776238-3.4025317.12388118-3.5240506-.37164356-3.5240506v-3.5240507l-.12388119-3.4025316-.24776238-3.5240507.12388119-3.5240506v-3.5240506l.37164357-3.4025317v-3.5240506l-.37164357-3.5240506-.12388119-3.4025317-.12388118-3.5240506v-3.5240506l.74328713-3.5240507-.61940595-3.4025316v-3.5240507-3.5240506l.37164357-3.5240506-.24776238-3.4025317.49552476-3.5240506-.49552476-3.5240506v-3.5240507l-.12388119-3.40253161.12388119-3.52405063v-3.64556962l3.59255446.36455696 3.59255445-.36455696 3.4686733-.12151899 3.4686732.48607595 3.4686733-.60759494 3.5925545.36455696 3.4686732.24303798h3.4686733l3.4686733.12151899 3.5925544-.60759494 3.4686733.48607595 3.4686733-.24303798 3.4686732.24303798 3.4686733-.60759494 3.5925544.48607595 3.4686733-.12151899 3.4686733-.24303797 3.4686732.12151899 3.5925545.12151898 3.4686733.12151899 3.4686732-.12151899h3.4686733l3.5925545.12151899h3.4686732 3.4686733l3.5925544-.12151899.2477624 3.52405064-.1238812 3.40253164-.2477623 3.5240506-.2477624 3.5240507.1238812 3.5240506.4955247 3.4025316-.7432871 3.5240507.3716436 3.5240506.4955247 3.5240506-.7432871 3.4025317.6194059 3.5240506v3.5240507l.1238812 3.4025316-.8671683 3.5240506.8671683 3.5240507-.1238812 3.5240506-.1238812 3.4025316-.3716435 3.5240507.1238812 3.5240506.3716435 3.5240506-.2477624 3.4025317.1238812 3.5240506-.2477623 3.5240507.2477623 3.5240506-.1238812 3.4025316-.1238811 3.5240507z" fill="#0057a4" fill-rule="nonzero"/><path d="m91.6283564 95.1493671-3.7164356.243038-3.4686733-.486076-3.4686732.364557-3.4686733-.243038h-3.4686733l-3.5925544-.243038-3.4686733.243038-3.4686733-.364557h-3.4686732l-3.5925545.243038-3.4686733-.243038-3.4686732.607595-3.4686733-.607595-3.5925544.607595-3.4686733-.364557-3.4686733.243038-3.4686732-.486076-3.5925545.486076-3.4686733-.486076-3.4686732.729114-3.4686733-.486076-3.5925545.364557-3.4686732-.486076-3.4686733.607595h-3.46867326l-3.71643565-.243038.24776238-3.6455696.24776238-3.4025317.12388118-3.5240506-.37164356-3.5240506v-3.5240507l-.12388119-3.4025316-.24776238-3.5240507.12388119-3.5240506v-3.5240506l.37164357-3.4025317v-3.5240506l-.37164357-3.5240506-.12388119-3.4025317-.12388118-3.5240506v-3.5240506l.74328713-3.5240507-.61940595-3.4025316v-3.5240507-3.5240506l.37164357-3.5240506-.24776238-3.4025317.49552476-3.5240506-.49552476-3.5240506v-3.5240507l-.12388119-3.40253161.12388119-3.52405063v-3.64556962l3.59255446.36455696 3.59255445-.36455696 3.4686733-.12151899 3.4686732.48607595 3.4686733-.60759494 3.5925545.36455696 3.4686732.24303798h3.4686733l3.4686733.12151899 3.5925544-.60759494 3.4686733.48607595 3.4686733-.24303798 3.4686732.24303798 3.4686733-.60759494 3.5925544.48607595 3.4686733-.12151899 3.4686733-.24303797 3.4686732.12151899 3.5925545.12151898 3.4686733.12151899 3.4686732-.12151899h3.4686733l3.5925545.12151899h3.4686732 3.4686733l3.5925544-.12151899.2477624 3.52405064-.1238812 3.40253164-.2477623 3.5240506-.2477624 3.5240507.1238812 3.5240506.4955247 3.4025316-.7432871 3.5240507.3716436 3.5240506.4955247 3.5240506-.7432871 3.4025317.6194059 3.5240506v3.5240507l.1238812 3.4025316-.8671683 3.5240506.8671683 3.5240507-.1238812 3.5240506-.1238812 3.4025316-.3716435 3.5240507.1238812 3.5240506.3716435 3.5240506-.2477624 3.4025317.1238812 3.5240506-.2477623 3.5240507.2477623 3.5240506-.1238812 3.4025316-.1238811 3.5240507z" stroke="#231f20" stroke-linejoin="bevel" stroke-width="1.2"/></g><g transform="translate(99 285)"><path d="m92.628 95.6735809-3.72.1224072-3.472-.4896286-3.596.3672214-3.472-.2448143h-3.472l-3.472-.1224071-3.596.1224071-3.472-.3672214-3.472.1224071-3.472.2448143-3.472-.3672214-3.596.7344429-3.472-.7344429-3.472.7344429-3.472-.4896286-3.596.2448143-3.472-.4896286-3.472.4896286-3.472-.3672215-3.596.6120358-3.472-.4896286-3.472.3672214-3.472-.4896286-3.596.7344429-3.472-.1224071-3.596-.2448143.124-3.5498074.372-3.5498073v-3.5498074l-.248-3.4274002v-3.5498073l-.248-3.5498074-.124-3.5498073v-3.4274002-3.5498074l.496-3.5498073-.124-3.5498074-.372-3.4274001v-3.5498074l-.248-3.5498073v-3.4274002l.868-3.5498074-.62-3.5498073v-3.5498074-3.4274002l.372-3.5498073-.372-3.5498074.496-3.5498073-.372-3.4274002v-3.5498074l-.248-3.54980733.124-3.54980735v-3.6722145l3.72.36722145 3.472-.2448143 3.472-.2448143 3.596.4896286 3.472-.4896286 3.472.2448143 3.472.36722145 3.596-.12240715 3.472.12240715 3.472-.4896286 3.472.4896286 3.472-.2448143 3.596.2448143 3.472-.7344429 3.472.4896286 3.472-.12240715 3.596-.12240715 3.472.12240715h3.472l3.472.2448143 3.596-.12240715h3.472l3.472.12240715 3.472-.12240715h3.596l3.472-.12240715.248 3.54980735v3.54980735l-.248 3.54980733-.372 3.4274002.248 3.5498074.496 3.5498073-.744 3.4274002.372 3.5498074.372 3.5498073-.744 3.5498074.62 3.4274002v3.5498073l.124 3.5498074-.744 3.4274002.868 3.5498073-.124 3.5498073-.248 3.5498074-.248 3.4274002.124 3.5498073.372 3.5498074-.372 3.5498073.124 3.4274002-.124 3.5498074.124 3.5498073v3.5498074l-.248 3.5498073z" fill="#fff" fill-rule="nonzero"/><path d="m92.628 95.6735809-3.72.1224072-3.472-.4896286-3.596.3672214-3.472-.2448143h-3.472l-3.472-.1224071-3.596.1224071-3.472-.3672214-3.472.1224071-3.472.2448143-3.472-.3672214-3.596.7344429-3.472-.7344429-3.472.7344429-3.472-.4896286-3.596.2448143-3.472-.4896286-3.472.4896286-3.472-.3672215-3.596.6120358-3.472-.4896286-3.472.3672214-3.472-.4896286-3.596.7344429-3.472-.1224071-3.596-.2448143.124-3.5498074.372-3.5498073v-3.5498074l-.248-3.4274002v-3.5498073l-.248-3.5498074-.124-3.5498073v-3.4274002-3.5498074l.496-3.5498073-.124-3.5498074-.372-3.4274001v-3.5498074l-.248-3.5498073v-3.4274002l.868-3.5498074-.62-3.5498073v-3.5498074-3.4274002l.372-3.5498073-.372-3.5498074.496-3.5498073-.372-3.4274002v-3.5498074l-.248-3.54980733.124-3.54980735v-3.6722145l3.72.36722145 3.472-.2448143 3.472-.2448143 3.596.4896286 3.472-.4896286 3.472.2448143 3.472.36722145 3.596-.12240715 3.472.12240715 3.472-.4896286 3.472.4896286 3.472-.2448143 3.596.2448143 3.472-.7344429 3.472.4896286 3.472-.12240715 3.596-.12240715 3.472.12240715h3.472l3.472.2448143 3.596-.12240715h3.472l3.472.12240715 3.472-.12240715h3.596l3.472-.12240715.248 3.54980735v3.54980735l-.248 3.54980733-.372 3.4274002.248 3.5498074.496 3.5498073-.744 3.4274002.372 3.5498074.372 3.5498073-.744 3.5498074.62 3.4274002v3.5498073l.124 3.5498074-.744 3.4274002.868 3.5498073-.124 3.5498073-.248 3.5498074-.248 3.4274002.124 3.5498073.372 3.5498074-.372 3.5498073.124 3.4274002-.124 3.5498074.124 3.5498073v3.5498074l-.248 3.5498073z" stroke="#231f20" stroke-linejoin="bevel" stroke-width="1.2"/></g><g stroke="#231f20" stroke-linejoin="bevel" stroke-width="1.2" transform="translate(120.991765 296.335055)"><path d="m8.63623529 18.1162582v-3.5498074l-.124-3.5498073-.372-3.54980735.124-3.4274002.372-3.30499305 1.98400001 1.9585144 2.108 2.32573585 2.728 1.7137001 1.86 2.9377716 2.604-2.32573585 2.108-2.32573585 1.984-2.32573585 2.232-2.08092155-.248 3.4274002-.124 3.4274002.372 3.54980735.372 3.5498073v3.5498074"/><path d="m46.2082353 2.81536445-2.604-1.83610725-3.224-.2448143v-.12240715l-3.472.4896286-2.852 1.9585144-2.356 2.6929573-.372 3.54980735h.248l.248 3.4274002 2.356 2.6929573 2.728 2.2033287 3.472.3672214 3.224-.85685 2.852-1.8361073 1.86-2.6929573.868-2.93777155-4.34-.61203575-4.464-.12240715"/><path d="m.08023529.4896286.124 3.54980735.496 3.4274002.124 3.54980735.124 3.5498073-.248 3.5498074"/></g><g stroke="#231f20" stroke-linejoin="bevel" stroke-width="1.2" transform="translate(120.991765 321.722145)"><path d="m8.63623529 17.5778193v-3.4274002l-.124-3.5498074-.372-3.54980733.124-3.54980735.372-3.1825859 1.98400001 1.9585144 2.108 2.32573585 2.728 1.7137001 1.86 2.81536445 2.604-2.2033287 2.108-2.32573585 1.984-2.32573585 2.232-2.08092155-.248 3.30499305-.124 3.54980735.372 3.54980733.372 3.5498074v3.4274002"/><path d="m46.2082353 2.39933267-2.604-1.83610725-3.224-.2448143v-.12240715l-3.472.4896286-2.852 1.9585144-2.356 2.6929573-.372 3.54980735h.248l.248 3.42740018 2.356 2.5705502 2.728 2.2033287 3.472.4896286v-.1224072l3.224-.7344429 2.852-1.9585144 1.86-2.6929573.868-2.81536443-4.34-.61203575-4.464-.12240715"/><path d="m.08023529.07359682.124 3.4274002.496 3.54980735.124 3.54980733.124 3.5498074-.248 3.4274002"/></g><g stroke="#231f20" stroke-linejoin="bevel" stroke-width="1.2" transform="translate(120.991765 346.521986)"><path d="m8.63623529 17.7490367v-3.5498073l-.124-3.4274002-.372-3.54980735.124-3.54980735.372-3.30499305 1.98400001 1.9585144 2.108 2.448143 2.728 1.7137001 1.86 2.81536445 2.604-2.2033287 2.108-2.32573585 1.984-2.448143 2.232-2.08092155-.248 3.4274002-.124 3.54980735.372 3.54980735.372 3.4274002v3.5498073"/><path d="m46.2082353 2.448143-2.604-1.83610725-3.224-.12240715v-.12240715l-3.472.36722145-2.852 2.08092155-2.356 2.57055015-.372 3.54980735h.248l.248 3.54980735 2.356 2.5705501 2.728 2.2033287 3.472.3672215 3.224-.7344429 2.852-1.9585144 1.86-2.6929573.868-2.81536445-4.34-.7344429h-4.464"/><path d="m.08023529.12240715.124 3.54980735.496 3.54980735.124 3.54980735.124 3.4274002-.248 3.5498073"/></g><path d="m278 383.883212 3.178203 1.722627 3.055965 1.845673 3.42268 1.230448 3.178204 1.722628 3.055964 1.968718 3.422681 1.230448 2.933726 2.214807 3.055964 1.722628 3.300442 1.476538 2.933726 2.091762 3.422681 1.353493 3.055964 1.968718 3.300442 1.476538 3.178203 2.091762-2.078056-2.953076-2.811487-2.214807-1.955817-2.953076-2.567011-2.337852-2.200294-2.706987-1.833579-2.953076-2.322533-2.583941-2.200295-2.706987-2.56701-2.337852-1.955817-2.953076-2.078056-2.830031-2.811488-2.091762-2.078056-2.830032-2.444772-2.953076 3.789397-.492179 3.544919-.24609 3.42268-.861314 3.667158-.246089 3.300441-1.353494 3.544919-.246089 3.422681-.984359 3.544919-.492179 3.544919-.24609 3.544919-.492179 3.42268-1.230449 3.544919-.369134 3.544919-.369135 3.544919-.369134 3.422681-.49218 3.42268-1.353493h3.667158l3.42268-.615224 3.544919-.615224 3.544919-.984359-3.544919-.861314-3.667158-.369134-3.42268-1.230449-3.544919-.246089-3.544919-.984359-3.544919-.369135-3.544919-1.107403-3.544919-.49218-3.42268-1.353493-3.667158-.246089-3.544919-.615225-3.300442-1.353493h-3.789396l-3.42268-1.353493-3.544919-.369135-3.422681-1.353493-3.544919-.369134-3.544919-.615225-3.544919-.861313-3.178203-.984359 2.56701-1.722628 2.567011-2.337852 2.444771-2.583941 2.444772-2.460897 2.689249-2.214807 3.178203-1.722628 2.200295-2.830031 2.933726-1.968718 2.56701-2.337852 2.56701-2.337852 2.689249-2.214807 2.567011-2.337852 2.811487-1.968717-3.300442.492179-3.544919.369135-3.42268.24609-3.544919.246089-3.422681.49218-3.42268.615224-3.544919-.24609-3.544919.369135-3.42268.984358-3.422681.123045-3.544919.49218-3.42268.246089 1.589101-3.199166 1.344625-3.32221 1.955817-3.076121 1.589102-3.199166 1.71134-3.199166 1.71134-3.199166 1.466863-3.32221 1.955818-3.076121 1.466863-3.199166" stroke="#231f20" stroke-linejoin="bevel" stroke-width="1.2"/><circle cx="262" cy="449" fill="#231f20" fill-rule="nonzero" r="5"/><circle cx="55" cy="254" fill="#231f20" fill-rule="nonzero" r="5"/><circle cx="131" cy="18" fill="#231f20" fill-rule="nonzero" r="5"/><g transform="translate(22 39)"><path d="m34.9479638 1.10760668 3.678733.49226963 3.5561086-.61533704 3.5561086.24613482 3.4334842-.24613482 3.5561086.24613482 3.5561086.24613482 3.5561086.24613481 3.5561086-.61533704 3.4334841.24613482 3.5561086-.12306741 3.5561086-.12306741 3.5561086-.12306741h3.5561086 3.4334842l3.5561086.24613482h3.5561086l3.5561086.24613482 3.4334841-.36920223 3.5561088.36920223 3.556108-.12306741 3.556109-.36920223h3.556109l3.433484.36920223 3.556108-.49226964 3.556109.49226964 3.556109.24613481 3.556108-.24613481h3.433484l3.556109.24613481h3.556109l3.556108-.73840445 3.556109.12306741 3.556108.36920223 3.433485.24613481h3.556108l3.556109-.61533704 3.556108.49226964 3.556109-.12306741 3.433484.12306741h3.556109l3.556108-.12306741 3.556109.36920222 3.556108-.24613481 3.433485-.61533705 3.556108.36920223h3.556109l3.556108-.24613482 3.556109.36920223 3.556109.12306741 3.433484-.36920223 3.556108-.24613482 3.556109.61533705 3.556109-.36920223 3.678733-.12306741 2.575113 2.58441558 2.452488 2.58441559 2.452489 2.46134817 2.452489 2.46134819 2.329864 2.707483 2.452489 2.4613482 2.329864 2.707483 2.329864 2.7074829 2.329864 2.707483 2.820362 2.092146 2.329865 2.707483 2.20724 2.8305504 3.06561 1.9690785 1.839367 3.0766852 2.452489 2.5844156 2.575113 2.3382808 2.820362 2.2152134 2.20724 2.7074829.490497 3.5689549v3.5689549l-.613122 3.5689548v3.6920223l-.122624 3.5689548-.122625 3.5689549.122625 3.5689548.490497 3.5689549-.122624 3.5689548-.367873 3.5689549.367873 3.5689549-.122624 3.5689548-.122625 3.5689549-.122624 3.6920222.735746 3.5689545-.735746 3.568955-.122625 3.568955.735747 3.568955-.613122 3.568955.490497 3.568955-.490497 3.568955.122624 3.568954.245249 3.692023-.367873 3.568954.122624 3.568955.490498 3.568955-.367873 3.568955-.367874 3.568955.367874 3.568955-.367874 3.568955.735747 3.692022-.613122 3.568955.367873 3.568955-.367873 3.568954.367873 3.568955-.122624 3.568955v3.568955l-3.556109.369202-3.433484.123068-3.556109-.738405-3.556108.123068-3.556109-.123068h-3.556109l-3.556108.615337-3.556109-.615337-3.556108.49227-3.556109-.49227-3.433484.615337-3.556109-.492269-3.556108.246134-3.556109.123068-3.556109.123067-3.556108-.123067-3.433484-.369202-3.556109.492269-3.556109-.615337-3.556108.49227-3.556109-.49227-3.556108.369202-3.556109-.246134-3.556109-.123068h-3.433484l-3.556108.49227-3.556109.123067-3.556108-.369202-3.556109-.246135-3.556109-.123067-3.556108.861472h-3.556109l-3.556108-.738405-3.433485-.123067-3.556108.492269-3.556109-.246134-3.556108.123067-3.556109.123067-3.556109-.246134-3.556108.369202-3.556109-.246135-3.556108.369202-3.556109-.123067-3.433484-.369202-3.556109.492269-3.556108-.246135-3.556109.246135-3.556109-.369202-3.5561081-.246135-3.5561086.615337-3.5561086-.246135-3.5561086-.369202-3.5561086.49227-3.5561086.123067-3.4334842.123068-3.5561086-.615337h-3.5561086l-3.5561086.369202-3.5561086-.49227-3.5561086.246135-3.5561086.123067h-3.5561086l-3.5561086-.246134-3.5561086.492269-3.5561086-.369202-3.5561086.49227-3.4334841-.49227-3.5561086-.246135-3.5561086-.123067-3.5561086.861472-3.5561086-.246135-3.5561086.123067-3.5561086-.492269-3.5561086-.246135-3.5561086.123067-3.80135746.49227-.12262444-3.692022.73574661-3.692023-.73574661-3.568955.24524887-3.568954.24524887-3.445888 2.57511312-2.461348 2.94298643-1.846011 3.06561086-1.969079 2.69773755-2.215213 2.9429864-1.969079 2.6977376-2.33828 2.5751131-2.461349 3.1882353-1.599876 2.820362-2.215213 2.820362-2.215214 2.6977375-2.215213 2.9429865-2.092146-.1226245-3.692022-.2452488-3.445888.2452488-3.568954-.1226244-3.568955.1226244-3.568955-.2452488-3.445888.1226244-3.568954.6131222-3.568955v-3.568955l-.6131222-3.568955v-3.4458875l-.1226244-3.5689548.6131221-3.5689549v-3.5689548-3.5689549l-.6131221-3.4458874.4904977-3.5689549v-3.5689548l.1226244-3.5689549v-3.5689549l.2452489-3.4458874-.4904977-3.5689549v-3.5689548l.4904977-3.5689549-.6131222-3.5689548-.1226244-3.4458875.1226244-3.5689548.2452489-3.5689549v-3.5689548l-.1226244-3.5689549.4904977-3.5689548-.4904977-3.4458875.3678733-3.5689548-.3678733-3.5689549.1226244-3.5689548v-3.5689549l.1226244-3.56895486z" fill="#ffe74a" fill-rule="nonzero"/><path d="m34.9479638 1.10760668 3.678733.49226963 3.5561086-.61533704 3.5561086.24613482 3.4334842-.24613482 3.5561086.24613482 3.5561086.24613482 3.5561086.24613481 3.5561086-.61533704 3.4334841.24613482 3.5561086-.12306741 3.5561086-.12306741 3.5561086-.12306741h3.5561086 3.4334842l3.5561086.24613482h3.5561086l3.5561086.24613482 3.4334841-.36920223 3.5561088.36920223 3.556108-.12306741 3.556109-.36920223h3.556109l3.433484.36920223 3.556108-.49226964 3.556109.49226964 3.556109.24613481 3.556108-.24613481h3.433484l3.556109.24613481h3.556109l3.556108-.73840445 3.556109.12306741 3.556108.36920223 3.433485.24613481h3.556108l3.556109-.61533704 3.556108.49226964 3.556109-.12306741 3.433484.12306741h3.556109l3.556108-.12306741 3.556109.36920222 3.556108-.24613481 3.433485-.61533705 3.556108.36920223h3.556109l3.556108-.24613482 3.556109.36920223 3.556109.12306741 3.433484-.36920223 3.556108-.24613482 3.556109.61533705 3.556109-.36920223 3.678733-.12306741 2.575113 2.58441558 2.452488 2.58441559 2.452489 2.46134817 2.452489 2.46134819 2.329864 2.707483 2.452489 2.4613482 2.329864 2.707483 2.329864 2.7074829 2.329864 2.707483 2.820362 2.092146 2.329865 2.707483 2.20724 2.8305504 3.06561 1.9690785 1.839367 3.0766852 2.452489 2.5844156 2.575113 2.3382808 2.820362 2.2152134 2.20724 2.7074829.490497 3.5689549v3.5689549l-.613122 3.5689548v3.6920223l-.122624 3.5689548-.122625 3.5689549.122625 3.5689548.490497 3.5689549-.122624 3.5689548-.367873 3.5689549.367873 3.5689549-.122624 3.5689548-.122625 3.5689549-.122624 3.6920222.735746 3.5689545-.735746 3.568955-.122625 3.568955.735747 3.568955-.613122 3.568955.490497 3.568955-.490497 3.568955.122624 3.568954.245249 3.692023-.367873 3.568954.122624 3.568955.490498 3.568955-.367873 3.568955-.367874 3.568955.367874 3.568955-.367874 3.568955.735747 3.692022-.613122 3.568955.367873 3.568955-.367873 3.568954.367873 3.568955-.122624 3.568955v3.568955l-3.556109.369202-3.433484.123068-3.556109-.738405-3.556108.123068-3.556109-.123068h-3.556109l-3.556108.615337-3.556109-.615337-3.556108.49227-3.556109-.49227-3.433484.615337-3.556109-.492269-3.556108.246134-3.556109.123068-3.556109.123067-3.556108-.123067-3.433484-.369202-3.556109.492269-3.556109-.615337-3.556108.49227-3.556109-.49227-3.556108.369202-3.556109-.246134-3.556109-.123068h-3.433484l-3.556108.49227-3.556109.123067-3.556108-.369202-3.556109-.246135-3.556109-.123067-3.556108.861472h-3.556109l-3.556108-.738405-3.433485-.123067-3.556108.492269-3.556109-.246134-3.556108.123067-3.556109.123067-3.556109-.246134-3.556108.369202-3.556109-.246135-3.556108.369202-3.556109-.123067-3.433484-.369202-3.556109.492269-3.556108-.246135-3.556109.246135-3.556109-.369202-3.5561081-.246135-3.5561086.615337-3.5561086-.246135-3.5561086-.369202-3.5561086.49227-3.5561086.123067-3.4334842.123068-3.5561086-.615337h-3.5561086l-3.5561086.369202-3.5561086-.49227-3.5561086.246135-3.5561086.123067h-3.5561086l-3.5561086-.246134-3.5561086.492269-3.5561086-.369202-3.5561086.49227-3.4334841-.49227-3.5561086-.246135-3.5561086-.123067-3.5561086.861472-3.5561086-.246135-3.5561086.123067-3.5561086-.492269-3.5561086-.246135-3.5561086.123067-3.80135746.49227-.12262444-3.692022.73574661-3.692023-.73574661-3.568955.24524887-3.568954.24524887-3.445888 2.57511312-2.461348 2.94298643-1.846011 3.06561086-1.969079 2.69773755-2.215213 2.9429864-1.969079 2.6977376-2.33828 2.5751131-2.461349 3.1882353-1.599876 2.820362-2.215213 2.820362-2.215214 2.6977375-2.215213 2.9429865-2.092146-.1226245-3.692022-.2452488-3.445888.2452488-3.568954-.1226244-3.568955.1226244-3.568955-.2452488-3.445888.1226244-3.568954.6131222-3.568955v-3.568955l-.6131222-3.568955v-3.4458875l-.1226244-3.5689548.6131221-3.5689549v-3.5689548-3.5689549l-.6131221-3.4458874.4904977-3.5689549v-3.5689548l.1226244-3.5689549v-3.5689549l.2452489-3.4458874-.4904977-3.5689549v-3.5689548l.4904977-3.5689549-.6131222-3.5689548-.1226244-3.4458875.1226244-3.5689548.2452489-3.5689549v-3.5689548l-.1226244-3.5689549.4904977-3.5689548-.4904977-3.4458875.3678733-3.5689548-.3678733-3.5689549.1226244-3.5689548v-3.5689549l.1226244-3.56895486z" stroke="#231f20" stroke-linejoin="bevel" stroke-width="1.2"/></g><path d="m56 174.3 3.590694.4 3.590694-.2h3.466877l3.590694-.4 3.590694-.1 3.590694.6 3.590694-.6h3.466877l3.590694.6 3.590694-.5 3.590694-.1 3.590694.4 3.466877-.4 3.590694.4 3.590694.1 3.590694.1 3.590694-.5 3.466877-.1 3.590694.5 3.590694-.1 3.590694-.3 3.590694.2 3.466877.3 3.590694-.6 3.590694.2 3.590694.1 3.590694-.1 3.466877.5 3.590694-.7h3.590694l3.590694.3 3.590694-.1 3.590694.2 3.466877-.2 3.590694.2 3.590694-.2 3.590694.1 3.590694-.3 3.590694.6 3.466877-.6 3.590694.7 3.590694-.2 3.590694-.4 3.590694.5" stroke="#231f20" stroke-linejoin="bevel" stroke-width="1.2"/><path d="m211.7 40-.2 3.5624569.1 3.5624568-.4 3.5624569.1 3.5624569-.3 3.5624568.7 3.5624569-.5 3.5624569.3 3.5624568-.4 3.5624569.3 3.5624569-.3 3.5624568.1 3.5624569.4 3.5624569-.4 3.5624568-.2 3.5624569.5 3.4396135.1 3.5624565-.3 3.562457-.3 3.562457.2 3.562457.2 3.562457.2 3.562457.1 3.562457-.6 3.562456.6 3.562457-.6 3.562457.4 3.562457-.3 3.562457.4 3.562457-.5 3.562457.1 3.562457.3 3.562456-.1 3.562457.2 3.562457-.1 3.562457v3.562457l-.4 3.562457v3.562457l.6 3.562456-.6 3.562457.6 3.562457-.1 3.439614-.4 3.562457-.1 3.562456.1 3.562457.4 3.562457-.1 3.562457.1 3.562457-.2 3.6853-.3 3.562457" stroke="#231f20" stroke-linejoin="bevel" stroke-width="1.2"/><path d="m211 174-2.476923 2.492918-2.358974 2.492918-1.88718 2.991501-2.71282 2.243626-2.241026 2.74221-2.241026 2.742209-2.123077 2.74221-2.358974 2.617564-2.358974 2.492918-2.241026 2.742209.235897 3.614731.117949 3.490085-.235897 3.490085v3.490085l-.117949 3.614731" stroke="#231f20" stroke-linejoin="bevel" stroke-width="1.2"/><path d="m22 201.2 3.5606509.5 3.4378698-.6h3.5606509l3.5606509.4 3.5606509.2 3.4378698-.5 3.5606509.1 3.5606509-.2 3.5606509.1 3.4378698.4 3.5606509-.1 3.5606509-.4h3.4378698l3.5606509.1 3.5606509.3 3.5606508-.2h3.4378699l3.5606509-.1 3.5606508.2 3.5606509.2 3.5606509-.3 3.4378698.3 3.5606509-.1 3.560651-.4 3.560651-.1 3.43787.3 3.560651.3 3.56065-.3h3.560651l3.43787.1 3.560651-.3 3.560651-.1 3.560651.4 3.43787.2 3.56065-.2 3.560651.2 3.560651-.3 3.560651-.3h3.43787l3.560651.3 3.560651-.2 3.560651.5 3.437869-.6 3.560651.2 3.560651-.2 3.560651.1 3.560651.3" stroke="#231f20" stroke-linejoin="bevel" stroke-width="1.2"/><g transform="translate(69 53)"><path d="m131.266667 101.77381h-3.544445l-3.544444.367857-3.422222-.735715-3.544445.122619-3.544444.122619-3.544445-.122619-3.422222.735715h-3.544444l-3.5444449-.613096-3.5444444.367858-3.5444445-.367858-3.4222222.613096-3.5444444-.122619-3.5444445-.613096-3.5444444.613096-3.4222223.122619h-3.5444444l-3.5444444-.735715-3.5444445.490477-3.5444444-.122619h-3.4222223l-3.5444444-.490477-3.5444444.735715-3.5444445-.367857-3.4222222.367857-3.5444445-.613096-3.5444444.735715-3.5444444-.245238-3.5444445.122619-3.4222222-.490477h-3.5444445l-3.5444444.367858-3.5444444-.245238-3.5444445.490476-3.54444443-.490476-3.42222223.245238-3.42222222-.367858.12222222-3.3107138-.24444444-3.4333333-.24444444-3.4333334-.12222223-3.5559524.61111111-3.4333333-.36666666-3.4333333.12222222-3.4333334v-3.5559523l-.24444444-3.4333334.61111111-3.4333333-.36666667-3.5559524-.48888889-3.4333333.24444445-3.4333334-.12222223-3.4333333.12222223-3.5559524.24444444-3.4333333.12222222-3.4333333-.48888889-3.5559524.36666667-3.4333333-.48888889-3.4333334.48888889-3.5559524-.12222222-3.4333333.36666666-3.4333333-.36666666-3.5559524-.12222222-3.4333333.12222222-3.4333334.36666666-3.55595236-.48888888-3.43333333v-3.67857143l3.66666666.36785714 3.54444445.12261905 3.54444443-.12261905 3.5444445-.12261904h3.5444444l3.4222222.36785714h3.5444445l3.5444444-.36785714 3.5444445.36785714 3.4222222-.61309524 3.5444444.49047619 3.5444445-.61309524 3.5444444.36785715 3.5444445-.49047619 3.4222222.61309523 3.5444444-.36785714 3.5444445.12261905h3.5444444l3.4222222.36785714h3.5444445l3.5444444.12261905 3.5444445-.61309524 3.5444444.36785714h3.4222222l3.5444445.2452381 3.5444444-.49047619 3.5444445-.12261905 3.4222222.2452381 3.5444441-.36785715h3.544445l3.544444.73571429 3.544445-.49047619 3.544444.24523809 3.422222.2452381 3.544445-.12261905 3.544444-.24523809h3.422222l.488889 3.43333333v3.43333333l-.611111 3.43333336.244445 3.5559524-.366667 3.4333333.488889 3.4333333-.488889 3.5559524.122222 3.4333333-.122222 3.4333334.733333 3.5559524-.733333 3.4333333.733333 3.4333333-.366666 3.4333334.122222 3.5559523-.366667 3.4333334.488889 3.4333333.122222 3.5559524-.488889 3.4333333v3.4333333l-.244444 3.5559524.244444 3.4333334-.122222 3.4333333.488889 3.5559524.122222 3.4333333v3.4333333l-.488889 3.5559524-.244444 3.4333334.122222 3.4333333z" fill="#fff" fill-rule="nonzero"/><path d="m131.266667 101.77381h-3.544445l-3.544444.367857-3.422222-.735715-3.544445.122619-3.544444.122619-3.544445-.122619-3.422222.735715h-3.544444l-3.5444449-.613096-3.5444444.367858-3.5444445-.367858-3.4222222.613096-3.5444444-.122619-3.5444445-.613096-3.5444444.613096-3.4222223.122619h-3.5444444l-3.5444444-.735715-3.5444445.490477-3.5444444-.122619h-3.4222223l-3.5444444-.490477-3.5444444.735715-3.5444445-.367857-3.4222222.367857-3.5444445-.613096-3.5444444.735715-3.5444444-.245238-3.5444445.122619-3.4222222-.490477h-3.5444445l-3.5444444.367858-3.5444444-.245238-3.5444445.490476-3.54444443-.490476-3.42222223.245238-3.42222222-.367858.12222222-3.3107138-.24444444-3.4333333-.24444444-3.4333334-.12222223-3.5559524.61111111-3.4333333-.36666666-3.4333333.12222222-3.4333334v-3.5559523l-.24444444-3.4333334.61111111-3.4333333-.36666667-3.5559524-.48888889-3.4333333.24444445-3.4333334-.12222223-3.4333333.12222223-3.5559524.24444444-3.4333333.12222222-3.4333333-.48888889-3.5559524.36666667-3.4333333-.48888889-3.4333334.48888889-3.5559524-.12222222-3.4333333.36666666-3.4333333-.36666666-3.5559524-.12222222-3.4333333.12222222-3.4333334.36666666-3.55595236-.48888888-3.43333333v-3.67857143l3.66666666.36785714 3.54444445.12261905 3.54444443-.12261905 3.5444445-.12261904h3.5444444l3.4222222.36785714h3.5444445l3.5444444-.36785714 3.5444445.36785714 3.4222222-.61309524 3.5444444.49047619 3.5444445-.61309524 3.5444444.36785715 3.5444445-.49047619 3.4222222.61309523 3.5444444-.36785714 3.5444445.12261905h3.5444444l3.4222222.36785714h3.5444445l3.5444444.12261905 3.5444445-.61309524 3.5444444.36785714h3.4222222l3.5444445.2452381 3.5444444-.49047619 3.5444445-.12261905 3.4222222.2452381 3.5444441-.36785715h3.544445l3.544444.73571429 3.544445-.49047619 3.544444.24523809 3.422222.2452381 3.544445-.12261905 3.544444-.24523809h3.422222l.488889 3.43333333v3.43333333l-.611111 3.43333336.244445 3.5559524-.366667 3.4333333.488889 3.4333333-.488889 3.5559524.122222 3.4333333-.122222 3.4333334.733333 3.5559524-.733333 3.4333333.733333 3.4333333-.366666 3.4333334.122222 3.5559523-.366667 3.4333334.488889 3.4333333.122222 3.5559524-.488889 3.4333333v3.4333333l-.244444 3.5559524.244444 3.4333334-.122222 3.4333333.488889 3.5559524.122222 3.4333333v3.4333333l-.488889 3.5559524-.244444 3.4333334.122222 3.4333333z" stroke="#231f20" stroke-linejoin="bevel" stroke-width="1.2"/></g><path d="m200 164.823529-2.938776 3.176471-3.061224-3.176471 3.061224-2.823529z" stroke="#231f20" stroke-linejoin="bevel" stroke-width="1.2"/><path d="m79 174-2.728 2.294686-3.1 2.05314-2.852 2.173913-2.48 2.657005-2.976 2.173913-2.48 2.536232-3.1 1.932367-2.728 2.415459-2.728 2.294686-3.1 2.05314-2.728 2.415459" stroke="#231f20" stroke-linejoin="bevel" stroke-width="1.2"/><path d="m103 175-2.716049 2.195122-3.0864201 1.951219-2.4691358 2.560976-2.8395062 2.195122-2.8395062 2.073171-2.4691358 2.560975-2.8395062 2.073171-2.7160493 2.317073-2.8395062 2.195122-2.7160494 2.317073-2.4691358 2.560976" stroke="#231f20" stroke-linejoin="bevel" stroke-width="1.2"/><path d="m187 174-2.170854 2.657005-2.170855 2.657005-2.41206 2.536232-2.532663 2.415458-2.653266 2.173914-2.170855 2.89855-2.291457 2.536232-2.41206 2.536232-2.291458 2.536232-2.894472 2.05314" stroke="#231f20" stroke-linejoin="bevel" stroke-width="1.2"/><path d="m166 174-2.777778 2.261905-2.415459 2.5-2.173913 2.857143-2.657005 2.380952-2.415459 2.5-2.657004 2.380952-2.294686 2.738096-2.657005 2.380952-2.536232 2.380952-2.415459 2.619048" stroke="#231f20" stroke-linejoin="bevel" stroke-width="1.2"/><path d="m142 175-2.41206 2.403846-2.653267 2.163462-2.050251 3.004807-2.41206 2.403847-2.41206 2.524038-2.412061 2.524038-2.41206 2.524039-2.41206 2.403846-2.77387 2.163462-2.050251 2.884615" stroke="#231f20" stroke-linejoin="bevel" stroke-width="1.2"/><path d="m125 174-2.941176 2.063107-2.235295 2.912621-2.823529 2.184466-2.235294 3.033981-2.941177 2.063107-2.705882 2.427184-2.117647 3.033981-2.705882 2.305825-2.470589 2.669903-2.823529 2.305825" stroke="#231f20" stroke-linejoin="bevel" stroke-width="1.2"/><path d="m39 187.4h3.5753425l3.4520548-.2 3.5753424.2 3.5753425-.2 3.4520548.2h3.5753425l3.4520547.3 3.5753425-.1 3.4520548-.1 3.5753425-.1 3.4520548.2 3.5753424-.4 3.4520548.3 3.5753425-.1 3.4520548-.1 3.5753425-.1 3.5753424.2 3.4520548-.2h3.575342l3.452055-.1h3.575343 3.452055l3.575342-.1 3.452055.4 3.575342-.1 3.575343-.3 3.452055.1h3.575342l3.452055.5 3.575342-.6 3.452055.4 3.575343.1 3.452054-.5 3.575343.2 3.575342.4 3.452055-.2 3.575342-.1 3.452055.3h3.575343l3.452055-.6 3.575342.5 3.575342.2 3.452055-.2 3.575343-.3h3.452055l3.575342.5" stroke="#231f20" stroke-linejoin="bevel" stroke-width="1.2"/><path d="m114 88.5-1.241935 2.1451613-2.258065 1.3548387-2.145161-1.3548387-1.354839-2.1451613 1.129032-2.483871 2.370968-1.016129 2.483871.9032258z" fill="#231f20" fill-rule="nonzero"/><path d="m153 88.3833333-1.129032 2.45-2.370968 1.1666667-2.483871-1.05-1.016129-2.5666667.790323-2.8 2.709677-.5833333 2.483871.8166667z" fill="#231f20" fill-rule="nonzero"/><path d="m150 100-.368098 3.646707-.981595 3.395209-1.349694 3.269461-2.331288 2.766467-2.331288 2.640719-2.822086 2.137724-3.067485 1.634731-3.435583 1.131736-3.435582.377246-3.435583-1.005988-3.558282-.377246-2.944786-2.011976-3.190184-1.508982-2.208589-2.892215-2.453987-2.640719-1.349694-3.395209-.490797-3.520958-.245399-3.646707" stroke="#231f20" stroke-linejoin="bevel" stroke-width="1.2"/><g transform="translate(52 461)"><path d="m235.929412.81385281-3.31086-.61533704-3.556109.61533704-3.556108-.24613481-3.556109.24613481-3.433484-.1230674-3.556109-.24613482-3.556108-.24613482-3.556109.49226964-3.556108-.24613482-3.433484.24613482h-3.556109l-3.556109.1230674h-3.556108-3.433484l-3.556109-.24613481h-3.556109l-3.556108-.24613482-3.556109.49226963-3.433484-.36920222h-3.556109l-3.556108.36920222h-3.556109l-3.556108-.24613481-3.433485.36920222-3.556108-.49226963-3.556109-.24613482-3.556108.36920223h-3.556109l-3.433484-.36920223-3.556109.12306741-3.556108.61533704-3.556109-.12306741-3.556108-.36920222-3.433485-.12306741-3.556108-.12306741-3.556109.61533704-3.556108-.49226963-3.556109.12306741-3.4334842-.12306741h-3.5561086l-3.5561086.24613482-3.5561086-.49226964-3.5561086.24613482-3.5561086.61533704-3.4334841-.36920222-3.5561086.12306741-3.5561086.24613481-3.5561086-.36920222-3.5561086-.24613482-3.5561086.36920223-3.4334842.24613481-3.5561086-.61533704-3.5561086.36920223-3.4334841.1230674-2.3298643 2.46134818-2.4524887 2.58441558-2.4524887 2.46134818-2.4524887 2.70748295-2.4524886 2.3382808-2.5751132 2.5844156-2.5751131 2.3382808-2.5751131 2.4613481-2.5751131 2.3382808-2.0846154 2.9536178-2.5751131 2.3382808-2.820362 2.2152133-1.8393665 3.1997527-2.9429865 1.9690785-2.5751131 2.4613482-2.20723981 2.707483-2.20723982 2.8305504-2.69773756 2.3382807.49049774 3.6920223v3.5689549l-.49049774 3.5689548-.12262443 3.5689549-.12262444 3.5689548-.12262443 3.5689549.12262443 3.5689548.61312217 3.5689549-.12262443 3.5689548-.49049774 3.6920223.3678733 3.5689549-.12262443 3.5689548v3.5689549l-.12262443 3.5689548.61312217 3.5689549-.61312217 3.5689551-.12262444 3.568955.73574661 3.568954-.61312217 3.692023.3678733 3.568955-.3678733 3.568954.12262443 3.568955.24524887 3.568955-.3678733 3.568955v3.568955l.49049773 3.568955-.24524887 3.568955-.49049773 3.692022.3678733 3.568955-.3678733 3.568955.7357466 3.568954-.61312217 3.568955.3678733 3.568955-.24524886 3.568955.24524886 3.692022-.12262443 3.568955v3.568955l3.67873303-.246135 3.43348416-.123067 3.5561086.738404 3.5561086-.123067h3.5561086 3.5561086l3.5561086-.49227 3.5561086.615337 3.5561086-.492269 3.4334841.369202 3.5561086-.615337 3.5561086.492269 3.5561086-.123067 3.5561086-.123067 3.5561086-.246135 3.5561086.246135 3.4334842.369202 3.5561086-.49227 3.5561086.615337 3.5561086-.615337 3.5561086.49227 3.5561086-.369202 3.5561086.369202 3.5561086.123067 3.4334841-.123067 3.5561086-.49227 3.5561086-.123067 3.5561083.492269 3.556109.246135h3.556109l3.556108-.738404h3.556109l3.433484.615337 3.556108.123067 3.556109-.369202 3.556109.246135 3.556108-.123068 3.556109-.246134 3.556108.369202 3.556109-.369202 3.556109.246134 3.556108-.369202 3.433484.123068 3.556109.246134 3.556109-.492269 3.556108.246135 3.556109-.123068 3.556108.369202 3.556109.246135 3.556109-.615337 3.556108.123068 3.556109.492269 3.556108-.615337h3.433485l3.556108-.123067 3.556109.615337 3.556108-.123068 3.556109-.369202 3.556109.49227 3.556108-.246135 3.556109-.123067h3.556108l3.556109.369202 3.556109-.615337 3.433484.492269 3.556108-.492269 3.556109.369202 3.556108.246135 3.556109.123067 3.556109-.738404 3.556108.123067h3.556109l3.556108.369202 3.556109.246135 3.556109-.123067 3.310859-.49227-.122624-3.32282.858371-3.568955-.858371-3.568955.245249-3.568955.245249-3.692022-3.065611-1.846011-2.697738-2.338281-2.697737-2.33828-2.942987-2.092146-2.575113-2.338281-3.065611-1.846011-3.065611-1.722944-2.452488-2.707483-2.942987-2.092146-2.820362-2.092146-2.942986-1.969078-2.820362-2.215214v-3.445887l-.367873-3.568955.245249-3.568955-.122625-3.445887.122625-3.568955-.245249-3.568955.122624-3.568955.490498-3.568955v-3.445887l-.613122-3.5689551v-3.5689549l-.122625-3.5689548.490498-3.5689549v-3.4458874l.122624-3.5689549-.735746-3.5689548.490498-3.5689549v-3.5689548l.122624-3.4458875-.122624-3.5689548.245248-3.5689549-.613122-3.5689549.122625-3.5689548.367873-3.4458875-.613122-3.5689548-.122625-3.5689549.122625-3.5689548.245249-3.5689549v-3.4458874l-.245249-3.5689549.490498-3.5689548-.490498-3.5689549.367873-3.5689548-.490498-3.5689549.245249-3.4458874-.122624-3.56895489.122624-3.56895486z" fill="#ff4040" fill-rule="nonzero"/><path d="m235.929412.81385281-3.31086-.61533704-3.556109.61533704-3.556108-.24613481-3.556109.24613481-3.433484-.1230674-3.556109-.24613482-3.556108-.24613482-3.556109.49226964-3.556108-.24613482-3.433484.24613482h-3.556109l-3.556109.1230674h-3.556108-3.433484l-3.556109-.24613481h-3.556109l-3.556108-.24613482-3.556109.49226963-3.433484-.36920222h-3.556109l-3.556108.36920222h-3.556109l-3.556108-.24613481-3.433485.36920222-3.556108-.49226963-3.556109-.24613482-3.556108.36920223h-3.556109l-3.433484-.36920223-3.556109.12306741-3.556108.61533704-3.556109-.12306741-3.556108-.36920222-3.433485-.12306741-3.556108-.12306741-3.556109.61533704-3.556108-.49226963-3.556109.12306741-3.4334842-.12306741h-3.5561086l-3.5561086.24613482-3.5561086-.49226964-3.5561086.24613482-3.5561086.61533704-3.4334841-.36920222-3.5561086.12306741-3.5561086.24613481-3.5561086-.36920222-3.5561086-.24613482-3.5561086.36920223-3.4334842.24613481-3.5561086-.61533704-3.5561086.36920223-3.4334841.1230674-2.3298643 2.46134818-2.4524887 2.58441558-2.4524887 2.46134818-2.4524887 2.70748295-2.4524886 2.3382808-2.5751132 2.5844156-2.5751131 2.3382808-2.5751131 2.4613481-2.5751131 2.3382808-2.0846154 2.9536178-2.5751131 2.3382808-2.820362 2.2152133-1.8393665 3.1997527-2.9429865 1.9690785-2.5751131 2.4613482-2.20723981 2.707483-2.20723982 2.8305504-2.69773756 2.3382807.49049774 3.6920223v3.5689549l-.49049774 3.5689548-.12262443 3.5689549-.12262444 3.5689548-.12262443 3.5689549.12262443 3.5689548.61312217 3.5689549-.12262443 3.5689548-.49049774 3.6920223.3678733 3.5689549-.12262443 3.5689548v3.5689549l-.12262443 3.5689548.61312217 3.5689549-.61312217 3.5689551-.12262444 3.568955.73574661 3.568954-.61312217 3.692023.3678733 3.568955-.3678733 3.568954.12262443 3.568955.24524887 3.568955-.3678733 3.568955v3.568955l.49049773 3.568955-.24524887 3.568955-.49049773 3.692022.3678733 3.568955-.3678733 3.568955.7357466 3.568954-.61312217 3.568955.3678733 3.568955-.24524886 3.568955.24524886 3.692022-.12262443 3.568955v3.568955l3.67873303-.246135 3.43348416-.123067 3.5561086.738404 3.5561086-.123067h3.5561086 3.5561086l3.5561086-.49227 3.5561086.615337 3.5561086-.492269 3.4334841.369202 3.5561086-.615337 3.5561086.492269 3.5561086-.123067 3.5561086-.123067 3.5561086-.246135 3.5561086.246135 3.4334842.369202 3.5561086-.49227 3.5561086.615337 3.5561086-.615337 3.5561086.49227 3.5561086-.369202 3.5561086.369202 3.5561086.123067 3.4334841-.123067 3.5561086-.49227 3.5561086-.123067 3.5561083.492269 3.556109.246135h3.556109l3.556108-.738404h3.556109l3.433484.615337 3.556108.123067 3.556109-.369202 3.556109.246135 3.556108-.123068 3.556109-.246134 3.556108.369202 3.556109-.369202 3.556109.246134 3.556108-.369202 3.433484.123068 3.556109.246134 3.556109-.492269 3.556108.246135 3.556109-.123068 3.556108.369202 3.556109.246135 3.556109-.615337 3.556108.123068 3.556109.492269 3.556108-.615337h3.433485l3.556108-.123067 3.556109.615337 3.556108-.123068 3.556109-.369202 3.556109.49227 3.556108-.246135 3.556109-.123067h3.556108l3.556109.369202 3.556109-.615337 3.433484.492269 3.556108-.492269 3.556109.369202 3.556108.246135 3.556109.123067 3.556109-.738404 3.556108.123067h3.556109l3.556108.369202 3.556109.246135 3.556109-.123067 3.310859-.49227-.122624-3.32282.858371-3.568955-.858371-3.568955.245249-3.568955.245249-3.692022-3.065611-1.846011-2.697738-2.338281-2.697737-2.33828-2.942987-2.092146-2.575113-2.338281-3.065611-1.846011-3.065611-1.722944-2.452488-2.707483-2.942987-2.092146-2.820362-2.092146-2.942986-1.969078-2.820362-2.215214v-3.445887l-.367873-3.568955.245249-3.568955-.122625-3.445887.122625-3.568955-.245249-3.568955.122624-3.568955.490498-3.568955v-3.445887l-.613122-3.5689551v-3.5689549l-.122625-3.5689548.490498-3.5689549v-3.4458874l.122624-3.5689549-.735746-3.5689548.490498-3.5689549v-3.5689548l.122624-3.4458875-.122624-3.5689548.245248-3.5689549-.613122-3.5689549.122625-3.5689548.367873-3.4458875-.613122-3.5689548-.122625-3.5689549.122625-3.5689548.245249-3.5689549v-3.4458874l-.245249-3.5689549.490498-3.5689548-.490498-3.5689549.367873-3.5689548-.490498-3.5689549.245249-3.4458874-.122624-3.56895489.122624-3.56895486z" stroke="#231f20" stroke-linejoin="bevel" stroke-width="1.2"/></g><path d="m289 596.4-3.590694-.4-3.590694.2h-3.466877l-3.590694.4-3.590694.1-3.590694-.6-3.590694.6h-3.466877l-3.590694-.6-3.590694.5-3.590694.1-3.590694-.4-3.466877.3-3.590694-.3-3.590694-.1-3.590694-.1-3.590694.5-3.466877.1-3.590694-.6-3.590694.1-3.590694.4-3.590694-.3-3.590694-.2-3.466877.6-3.590694-.2-3.590694-.1-3.590694.1-3.590694-.5-3.466877.7h-3.590694l-3.590694-.3h-3.590694l-3.590694-.1-3.590694.2-3.466877-.2-3.590694.2-3.590694-.1-3.590694.3-3.590694-.6-3.590694.6-3.466877-.7-3.590694.2-3.590694.4-3.590694-.5" stroke="#231f20" stroke-linejoin="bevel" stroke-width="1.2"/><path d="m132.7 462-.2 3.564917.1 3.564917-.4 3.564917.1 3.564918-.3 3.564917.7 3.564917-.5 3.441989.3 3.564917-.4 3.564917.2 3.564917-.2 3.564917.1 3.564917.4 3.564917-.4 3.564918-.2 3.564917.5 3.564917.1 3.564917-.3 3.564917-.3 3.564917.2 3.564917.1 3.564917.3 3.564918.1 3.564917-.6 3.564917.6 3.564917-.6 3.441989.4 3.564917-.3 3.564917.4 3.564917-.5 3.564917.1 3.564918.3 3.564917-.1 3.564917.2 3.564917-.1 3.564917v3.564917l-.4 3.564917v3.564917l.6 3.564918-.6 3.564917.6 3.564917-.1 3.564917-.4 3.564917-.1 3.564917.1 3.564917.4 3.564917-.1 3.564918.1 3.564917-.2 3.564917-.3 3.564917" stroke="#231f20" stroke-linejoin="bevel" stroke-width="1.2"/><path d="m133 596 2.134021 2.850704 2.13402 2.726761 2.608248 2.354929 1.896907 2.974648 2.371134 2.602817 2.371134 2.602817 2.371134 2.478873 2.252577 2.602817 2.134021 2.850704 2.371134 2.478874.237113 3.470422.118557 3.470423-.118557 3.470422v3.594366l-.237113 3.470423" stroke="#231f20" stroke-linejoin="bevel" stroke-width="1.2"/><path d="m323 622.5-3.560651-.5-3.43787.5-3.560651.1-3.56065-.4-3.560651-.2-3.43787.5-3.560651-.1-3.560651.2-3.560651-.1-3.43787-.4h-3.560651l-3.56065.4-3.560651.1-3.43787-.1-3.560651-.3-3.560651.2h-3.560651-3.43787l-3.560651-.2-3.56065-.1-3.560651.2-3.43787-.2h-3.560651l-3.560651.4-3.560651.1-3.43787-.2-3.560651-.4-3.56065.4-3.560651-.1-3.560651-.1-3.43787.4h-3.560651l-3.560651-.4-3.560651-.2-3.437869.2-3.560651-.1-3.560651.3-3.560651.2h-3.43787l-3.560651-.2-3.560651.2-3.560651-.5-3.560651.5-3.437869-.1-3.560651.1-3.560651-.1-3.560651-.2" stroke="#231f20" stroke-linejoin="bevel" stroke-width="1.2"/><g transform="translate(144 474)"><path d="m.85555556 102.141667h3.66666666l3.42222222-.367857 3.54444446.613095h3.5444444l3.5444445-.122619 3.5444444.122619 3.4222222-.858334 3.5444445.122619 3.5444444.613096 3.5444445-.490476 3.4222222.490476 3.5444444-.613096h3.5444445l3.5444444.735715 3.5444445-.613095 3.4222222-.12262h3.5444444l3.5444445.735715 3.5444444-.490476h3.4222223l3.5444444.122619 3.5444444.367857 3.5444445-.613095 3.5444444.367857 3.4222223-.367857 3.5444444.613095 3.5444444-.735715 3.5444445.12262h3.5444441l3.422223.367857h3.544444l3.544444-.367857 3.544445.367857 3.544444-.490477 3.422223.367858 3.544444-.245238 3.666667.367857.122222-3.5559527-.122222-3.5559524-.244445-3.4333333-.244444-3.4333334.611111-3.4333333-.244445-3.5559524.122223-3.4333333-.122223-3.4333333-.122222-3.5559524.488889-3.4333334-.366667-3.4333333-.366666-3.4333333.244444-3.5559524-.244444-3.4333333.244444-3.4333334.244445-3.5559524v-3.4333333l-.366667-3.4333333.366667-3.5559524-.488889-3.4333333.488889-3.4333334-.244445-3.5559523.488889-3.4333334-.488889-3.4333333v-3.5559524l.122222-3.4333333.366667-3.43333336-.611111-3.55595238.122222-3.18809524-3.422222-.36785714-3.422222-.12261905h-3.544445l-3.544444.24523809-3.544445-.12261904-3.422222-.2452381h-3.544444l-3.544445.2452381-3.5444441-.2452381-3.5444445.61309524-3.4222222-.49047619-3.5444444.49047619-3.5444445-.36785714-3.5444444.49047619-3.4222222-.49047619-3.5444445.24523809-3.5444444-.12261905-3.5444445.12261905-3.5444444-.36785714-3.4222222-.12261905-3.5444445-.12261905-3.5444444.73571429-3.5444445-.36785714h-3.4222222l-3.5444444-.2452381-3.5444445.49047619-3.5444444.12261905-3.5444445-.36785714-3.4222222.36785714h-3.5444444l-3.5444445-.73571429-3.5444444.61309524-3.5444445-.36785714-3.4222222-.12261905-3.54444443.12261905-3.54444445.12261905h-3.66666666l.48888888 3.55595238v3.55595238l-.73333333 3.43333336.36666667 3.4333333-.36666667 3.4333333.48888889 3.5559524-.48888889 3.4333334.12222222 3.4333333-.12222222 3.5559524.73333333 3.4333333-.73333333 3.4333333.73333333 3.5559524-.36666666 3.4333333.12222222 3.4333334-.36666667 3.4333333.48888889 3.5559524.12222222 3.4333333-.48888888 3.4333334v3.5559523l-.24444445 3.4333334.24444445 3.4333333-.12222223 3.5559524.48888889 3.4333333.12222222 3.4333334v3.5559523l-.48888888 3.4333334-.24444445 3.4333333.12222222 3.5559524z" fill="#fff" fill-rule="nonzero"/><path d="m.85555556 102.141667h3.66666666l3.42222222-.367857 3.54444446.613095h3.5444444l3.5444445-.122619 3.5444444.122619 3.4222222-.858334 3.5444445.122619 3.5444444.613096 3.5444445-.490476 3.4222222.490476 3.5444444-.613096h3.5444445l3.5444444.735715 3.5444445-.613095 3.4222222-.12262h3.5444444l3.5444445.735715 3.5444444-.490476h3.4222223l3.5444444.122619 3.5444444.367857 3.5444445-.613095 3.5444444.367857 3.4222223-.367857 3.5444444.613095 3.5444444-.735715 3.5444445.12262h3.5444441l3.422223.367857h3.544444l3.544444-.367857 3.544445.367857 3.544444-.490477 3.422223.367858 3.544444-.245238 3.666667.367857.122222-3.5559527-.122222-3.5559524-.244445-3.4333333-.244444-3.4333334.611111-3.4333333-.244445-3.5559524.122223-3.4333333-.122223-3.4333333-.122222-3.5559524.488889-3.4333334-.366667-3.4333333-.366666-3.4333333.244444-3.5559524-.244444-3.4333333.244444-3.4333334.244445-3.5559524v-3.4333333l-.366667-3.4333333.366667-3.5559524-.488889-3.4333333.488889-3.4333334-.244445-3.5559523.488889-3.4333334-.488889-3.4333333v-3.5559524l.122222-3.4333333.366667-3.43333336-.611111-3.55595238.122222-3.18809524-3.422222-.36785714-3.422222-.12261905h-3.544445l-3.544444.24523809-3.544445-.12261904-3.422222-.2452381h-3.544444l-3.544445.2452381-3.5444441-.2452381-3.5444445.61309524-3.4222222-.49047619-3.5444444.49047619-3.5444445-.36785714-3.5444444.49047619-3.4222222-.49047619-3.5444445.24523809-3.5444444-.12261905-3.5444445.12261905-3.5444444-.36785714-3.4222222-.12261905-3.5444445-.12261905-3.5444444.73571429-3.5444445-.36785714h-3.4222222l-3.5444444-.2452381-3.5444445.49047619-3.5444444.12261905-3.5444445-.36785714-3.4222222.36785714h-3.5444444l-3.5444445-.73571429-3.5444444.61309524-3.5444445-.36785714-3.4222222-.12261905-3.54444443.12261905-3.54444445.12261905h-3.66666666l.48888888 3.55595238v3.55595238l-.73333333 3.43333336.36666667 3.4333333-.36666667 3.4333333.48888889 3.5559524-.48888889 3.4333334.12222222 3.4333333-.12222222 3.5559524.73333333 3.4333333-.73333333 3.4333333.73333333 3.5559524-.36666666 3.4333333.12222222 3.4333334-.36666667 3.4333333.48888889 3.5559524.12222222 3.4333333-.48888888 3.4333334v3.5559523l-.24444445 3.4333334.24444445 3.4333333-.12222223 3.5559524.48888889 3.4333333.12222222 3.4333334v3.5559523l-.48888888 3.4333334-.24444445 3.4333333.12222222 3.5559524z" stroke="#231f20" stroke-linejoin="bevel" stroke-width="1.2"/></g><path d="m145 586.169811 3.563636 2.830189 3.436364-2.830189-3.436364-3.169811z" stroke="#231f20" stroke-linejoin="bevel" stroke-width="1.2"/><path d="m266 597 2.75 2.15311 2.625 2.511962 2.875 2.392344 3 1.913876 2.75 2.392344 3.125 1.913876 2.5 2.631579 3 2.15311 2.875 2.15311 2.5 2.631579 3 2.15311" stroke="#231f20" stroke-linejoin="bevel" stroke-width="1.2"/><path d="m242 596 2.558824 2.261905 2.436974 2.619047 2.802521 2.02381 2.558824 2.380952 2.436975 2.380953 2.924369 2.023809 2.436975 2.5 2.680672 2.261905 2.558824 2.380952 2.680672 2.261905 2.92437 1.904762" stroke="#231f20" stroke-linejoin="bevel" stroke-width="1.2"/><path d="m157 597 2.532663 2.403846 2.653267 2.163462 2.41206 2.64423 2.291457 2.524039 2.050251 2.764423 2.77387 2.163462 2.41206 2.524038 2.41206 2.524038 2.532664 2.403847 1.929648 2.884615" stroke="#231f20" stroke-linejoin="bevel" stroke-width="1.2"/><path d="m179 597 2.240566 2.791262 2.59434 2.427185 2.712264 2.184466 2.35849 2.548543 2.59434 2.427185 2.358491 2.669903 2.712264 2.305825 2.35849 2.669903 2.476415 2.548544 2.59434 2.427184" stroke="#231f20" stroke-linejoin="bevel" stroke-width="1.2"/><path d="m202 596 2.291457 2.524038 2.170855 2.764424 2.773869 2.163461 2.41206 2.524039 2.412061 2.524038 2.41206 2.403846 2.41206 2.524039 2.291457 2.524038 2.050252 2.884615 2.773869 2.163462" stroke="#231f20" stroke-linejoin="bevel" stroke-width="1.2"/><path d="m218 596 2.266055 2.870813 2.981651 2.15311 2.266055 2.751197 3.100918 2.033492 2.146789 2.990431 2.623853 2.511962 2.981651 2.033493 2.504588 2.631579 2.743119 2.392344 2.385321 2.631579" stroke="#231f20" stroke-linejoin="bevel" stroke-width="1.2"/><path d="m307 610.3h-3.454684l-3.578065.2-3.454684-.2-3.578066.2-3.454684-.2h-3.578065l-3.454684-.3-3.578066.1-3.454684.1-3.578065.1-3.454684-.2-3.578066.3-3.454684-.2-3.578065.1-3.578066.1-3.454683.1-3.578066-.3-3.454684.3-3.578065-.1-3.454684.2-3.578066-.1-3.454684.1h-3.578065l-3.578066-.3-3.454684.1-3.578065.3-3.454684-.1-3.578066-.1-3.454684-.4-3.578065.6-3.454684-.5h-3.578065l-3.578066.5-3.454684-.3-3.578065-.3-3.454684.1-3.578066.2-3.454684-.3h-3.578065l-3.578066.6-3.454684-.5-3.578065-.2-3.454684.2-3.578066.2-3.578065.1-3.454684-.5" stroke="#231f20" stroke-linejoin="bevel" stroke-width="1.2"/><path d="m225 528-1 2.97619-1 2.976191-2.625 2.023809-2.75 1.785715-3.375.238095-3.25-.357143-2.875-1.666667-2-2.380952-2.125-2.5.25-3.095238" stroke="#231f20" stroke-linejoin="bevel" stroke-width="1.2"/><g transform="translate(159 328)"><path d="m91.7519101 95.5139241-3.5973034.1215189-3.4732584-.4860759-3.5973034.364557-3.4732584-.243038h-3.4732584l-3.4732584-.121519-3.5973034.121519-3.4732584-.243038h-3.4732585l-3.4732584.243038-3.4732584-.364557-3.5973034.7291139-3.4732584-.7291139-3.4732584.7291139-3.4732585-.4860759-3.5973033.364557-3.4732585-.607595-3.4732584.607595-3.4732584-.486076-3.5973034.7291139-3.4732584-.6075949-3.4732584.364557-3.4732585-.364557-3.59730334.6075949h-3.47325843l-3.59730337-.2430379.12404494-3.6455697.24808989-3.5240506.12404495-3.4025316-.24808989-3.5240507v-3.5240506l-.24808989-3.5240506-.12404494-3.4025317v-3.5240506-3.5240507l.49617977-3.5240506-.12404494-3.4025316-.37213483-3.5240507v-3.5240506l-.24808989-3.4025316v-3.5240507l.86831461-3.5240506-.62022472-3.5240506v-3.4025317-3.5240506l.37213483-3.5240507-.37213483-3.5240506.49617977-3.4025316-.37213483-3.5240507v-3.5240506l-.24808989-3.52405064.12404495-3.40253164v-3.76708861l3.72134831.36455696 3.47325843-.24303797 3.47325844-.12151899 3.5973034.48607595 3.4732584-.60759494 3.4732584.24303798 3.4732584.36455696 3.5973034-.12151899 3.4732584.24303798 3.4732585-.60759494 3.4732584.48607595 3.4732584-.24303797 3.5973034.24303797 3.4732584-.72911392 3.4732584.60759493 3.4732585-.12151898 3.5973033-.24303798 3.4732585.12151899 3.4732584.12151899 3.4732584.12151898 3.5973034-.12151898h3.4732584l3.4732584.12151898 3.4732585-.12151898 3.5973033.12151898 3.4732585-.12151898.2480899 3.40253164v3.52405063l-.2480899 3.52405064-.3721349 3.5240506.2480899 3.4025317.4961798 3.5240506-.7442697 3.5240506.3721349 3.5240507.3721348 3.4025316-.7442697 3.5240507.6202248 3.5240506v3.4025316l.1240449 3.5240507-.7442697 3.5240506.7442697 3.5240506v3.4025317l-.2480899 3.5240506-.2480899 3.5240506.124045 3.5240507.3721348 3.4025316-.3721348 3.5240507.1240449 3.5240506-.1240449 3.5240506.1240449 3.4025317-.1240449 3.5240506-.124045 3.5240506z" fill="#fff" fill-rule="nonzero"/><path d="m91.7519101 95.5139241-3.5973034.1215189-3.4732584-.4860759-3.5973034.364557-3.4732584-.243038h-3.4732584l-3.4732584-.121519-3.5973034.121519-3.4732584-.243038h-3.4732585l-3.4732584.243038-3.4732584-.364557-3.5973034.7291139-3.4732584-.7291139-3.4732584.7291139-3.4732585-.4860759-3.5973033.364557-3.4732585-.607595-3.4732584.607595-3.4732584-.486076-3.5973034.7291139-3.4732584-.6075949-3.4732584.364557-3.4732585-.364557-3.59730334.6075949h-3.47325843l-3.59730337-.2430379.12404494-3.6455697.24808989-3.5240506.12404495-3.4025316-.24808989-3.5240507v-3.5240506l-.24808989-3.5240506-.12404494-3.4025317v-3.5240506-3.5240507l.49617977-3.5240506-.12404494-3.4025316-.37213483-3.5240507v-3.5240506l-.24808989-3.4025316v-3.5240507l.86831461-3.5240506-.62022472-3.5240506v-3.4025317-3.5240506l.37213483-3.5240507-.37213483-3.5240506.49617977-3.4025316-.37213483-3.5240507v-3.5240506l-.24808989-3.52405064.12404495-3.40253164v-3.76708861l3.72134831.36455696 3.47325843-.24303797 3.47325844-.12151899 3.5973034.48607595 3.4732584-.60759494 3.4732584.24303798 3.4732584.36455696 3.5973034-.12151899 3.4732584.24303798 3.4732585-.60759494 3.4732584.48607595 3.4732584-.24303797 3.5973034.24303797 3.4732584-.72911392 3.4732584.60759493 3.4732585-.12151898 3.5973033-.24303798 3.4732585.12151899 3.4732584.12151899 3.4732584.12151898 3.5973034-.12151898h3.4732584l3.4732584.12151898 3.4732585-.12151898 3.5973033.12151898 3.4732585-.12151898.2480899 3.40253164v3.52405063l-.2480899 3.52405064-.3721349 3.5240506.2480899 3.4025317.4961798 3.5240506-.7442697 3.5240506.3721349 3.5240507.3721348 3.4025316-.7442697 3.5240507.6202248 3.5240506v3.4025316l.1240449 3.5240507-.7442697 3.5240506.7442697 3.5240506v3.4025317l-.2480899 3.5240506-.2480899 3.5240506.124045 3.5240507.3721348 3.4025316-.3721348 3.5240507.1240449 3.5240506-.1240449 3.5240506.1240449 3.4025317-.1240449 3.5240506-.124045 3.5240506z" stroke="#231f20" stroke-linejoin="bevel" stroke-width="1.2"/></g><g stroke="#231f20" stroke-linejoin="bevel" stroke-width="1.2"><g transform="translate(172.851685 363.240506)"><path d="m17.1182022 15.5544304 3.7213484-.121519 3.8453932.4860759 3.7213483-.6075949 3.7213483.486076 3.7213484-.121519 3.7213483-.243038 3.9694382-.6075949 2.6049438-2.7949368 1.2404494-3.76708856h-.2480898l-.8683147-3.76708861-2.7289887-2.91645569-3.9694382-.60759494-3.7213483-.12151899-3.7213484.36455696-3.7213483.12151899-3.7213483-.12151899-3.7213483-.24303797-3.4732584.12151899-.124045 3.40253164.124045 3.76708861v3.64556966l.1240449 3.7670886-.4961798 3.6455696-.3721348 3.7670886.4961798 3.6455696.1240449 3.7670886"/><path d="m11.04 24.4253165-2.48089888-2.6734178-2.60494382-2.6734177-2.72898876-2.5518987-2.60494382-2.4303798 2.72898876-2.4303797 2.23280899-2.91645571 2.72898877-2.43037975 2.48089886-2.79493671"/><path d="m52.2229213 3.64556962 2.7289888 2.55189873 2.3568539 2.79493671 2.9770787 2.30886074 2.7289888 2.7949367-3.2251686 2.3088608-2.4808989 2.6734177-2.6049438 2.6734177-2.7289887 2.5518988"/></g><g transform="translate(3 245)"><path d="m.12241379 182.947619 3.18275862-1.103571 3.18275862-1.34881 3.42758621-.367857 3.30517246-1.103571 3.1827586-1.226191 3.3051724-.735714 3.0603448-1.716667 3.3051724-.980952 3.55-.490476 3.1827587-.980953 3.1827586-1.348809 3.3051724-.980953 3.3051724-.858333 3.1827586-1.594048 3.1827586-1.103571 3.3051725-.980953 3.4275862-.490476"/><path d="m279.47069 1.71666667 2.448276 2.94285714 1.346551 3.55595238-.489655 3.67857141-1.713793 3.1880953-2.57069 2.575-3.305172 1.4714285-3.794828.2452381-3.305172-1.9619047-2.448276-2.8202381-1.224138-3.4333334.244828-3.6785714 1.101724-3.55595238 2.937931-2.3297619 3.55-1.22619048 3.672414-.24523809z"/><path d="m25.7068966 206 3.1827586-1.471429 3.0603448-1.839285 3.0603448-1.716667 3.1827586-1.348809 3.1827587-1.594048 3.1827586-1.471429 2.937931-1.961904 2.9379311-1.839286 3.1827586-1.471429 3.0603448-1.839285 3.3051724-1.226191 2.8155173-2.207143 2.937931-1.839285"/><path d="m11.0172414 142.483333 3.3051724 1.226191 3.6724138.245238 3.3051724 1.103571 3.4275862.735715 3.55.613095 3.4275862.858333 3.4275862.613095 3.4275862 1.103572 3.4275862.858333 3.3051724 1.226191 3.4275863.613095 3.55.367857 3.4275862 1.226191"/></g><path d="m257.6 99 .1 3.540958-.1 3.663061-.3 3.540958-.2 3.540958v3.66306l-.1 3.540959.5 3.66306-.4 3.540958.5 3.540958-.1 3.663061-.4 3.540958.1 3.66306-.2 3.540959.6 3.540958-.3 3.66306.2 3.540958v3.663061l-.3 3.540958.3 3.66306-.5 3.540958.5 3.540959.1 3.66306"/><path d="m305 85-.365922-3.2974138-.487896-3.4195402-.365921-3.2974138-.853818-3.1752874-.853817-3.2974138-1.951583-2.6867816-1.463687-3.0531609-2.073557-2.5646552-2.683427-2.0761494-2.317504-2.5646552-3.293296-1.2212643-2.805401-1.954023-3.293296-1.099138-3.537244-.6106321-3.41527.7327586-3.41527.2442529-3.41527.7327586-2.8054 1.954023-3.171322 1.4655172-2.805401 2.0761494-2.683426 2.0761495-2.683427 2.1982758-2.073556 2.8089081-2.073557 2.808908-2.073557 2.6867816-1.951583 2.9310345 1.829609-3.1752874.731844-3.5416666 1.219739-3.4195402 1.463687-3.1752874.487896-3.5416667.853817-3.5416666.975792-3.4195403.609869-3.4195402.60987-3.5416667.487896-3.5416666.487896-3.5416667-.121974-3.5416667.121974-3.5416666-.121974-3.5416667-.975792-3.5416667-.853817-3.4195402-2.073557-3.0531609-1.463687-3.2974138-2.073557-2.93103449-2.927374-1.95402299-3.049349-1.95402299-2.927374-1.83189655-3.41527-.85488505-3.293296-1.58764368-3.41527-.36637931-3.537244-.12212644-3.293296 1.09913793-3.537244.36637931-3.171322 1.58764368-3.293296 1.22126437-2.927375 1.95402299-2.683426 2.19827586-2.8054 2.07614946-2.073557 2.808908-2.561453 2.4425287-2.317504 2.5646552-1.951583 2.9310345-2.073557 2.808908-2.317505 2.6867817-1.707635 2.9310344-1.707635 3.053161-1.341713 3.2974138-1.463687 3.1752873-1.341713 3.1752874-1.463687 3.1752873-1.463688 3.1752874-.609869 3.4195402-1.21974 3.2974138-.121973 3.4195402-.731844 3.5416667 2.073557 2.3204023 2.927374-1.4655172 2.195531-2.6867817 1.951583-2.9310344.853817-3.5416667 1.463687-3.2974138.60987-3.5416667.60987-3.5416666v-3.5416667l-.121974-3.6637931-.853818-3.4195402-1.097765-3.4195403-.731844-3.5416666-1.951583-3.0531609-2.317504-2.5646552-2.683427-2.3204023-3.049348-1.8318966-3.41527-.9770115"/><path d="m88.6 510 .1 3.541667v3.541666l-.4 3.541667-.2 3.541667.1 3.541666-.2 3.541667.6 3.541667-.5 3.541666.5 3.541667v3.541667l-.4 3.541666.1 3.541667-.2 3.541667.6 3.541666-.4 3.541667.3 3.541667v3.541666l-.4 3.541667.3 3.541667-.5 3.541666.5 3.541667.1 3.541667-.4 3.541666-.2 3.541667"/><path d="m0 87 3.17696629 1.4519573 3.54353933.2419929 3.42134828-.2419929 3.4213483-.2419929 3.4213484-.7259786 3.4213483.3629893 3.4213483.7259786 3.1769663 1.5729538 2.4438202 2.5409252 2.3216292 2.2989324 2.0772472 2.7829182 2.8103933 2.1779359 2.3216292 2.4199288 3.1769663 1.572954 3.5435393.362989 3.4213483.483986h3.4213483l3.4213483-.483986 3.4213484-.846975 3.4213483.483986 3.4213483.967971 3.0547753 1.69395 2.6882022 2.05694 2.1994382 2.661922 2.3216292 2.661921 2.0772472 2.661922 2.9325843 1.814947 3.2991573 1.209964 2.1994382 1.330961"/><path d="m24 604 3.2908587-.972549 2.8033241-2.066667 2.4376732-2.552941 2.4376731-2.431372 2.0720221-2.67451 2.8033241-1.945098 3.1689751-1.701961 3.2908587-.85098 3.5346261.364705 3.4127424.121569 3.2908587.729412 3.534626-.121569 3.4127424.364706 3.4127424-.972549 2.9252077-1.945098 2.9252078-1.823529 2.5595568-2.188236 2.1939058-2.674509 2.0720222-2.917648 2.9252077-1.823529 3.1689751-1.458823 3.4127424-.729412 3.4127424-.243137 3.4127423.607843 3.4127424.486274 3.4127423.729412 3.412742-.607843 3.290859-1.215686 2.559557-.486275"/><path d="m339.021429 625 3.080357-1.622061 3.326785-.998192 3.326786-.62387 3.203572-1.122966 3.203571-.998191 3.203571-1.122966 3.203572-1.497287 3.203571-.873418 3.326786-.748644 3.326786-.873418 3.573214-1.247739-3.942857-.374322-3.45-.748644-3.45-.499096-3.45-.873417-3.45-.748644-3.45-.748644-3.573214-.374322-3.45-.748644-3.573215-.249548-3.45-.748643-3.573214-.374322 2.710714-2.495479 2.5875-2.49548 2.710715-2.370705 2.464285-2.620253 2.464286-2.620253 2.710714-2.245931 2.833929-2.370706 2.094643-2.495479-2.957143.499096-3.326786.873418-3.080357 1.622061-3.45.374322-3.203571.998192-3.080358 1.372513-3.326785.873418-3.326786.62387-3.203571 1.372513-.369643-3.618444.123214-3.618445.123214-3.618445.492857-3.618445-.123214-3.618445-.369643-3.618445-.123214-3.618445.123214-3.49367.492857-3.618445-.246428-3.618445-.123214-3.618445-1.478572 3.119349-1.848214 2.869801-1.108929 3.244123-1.725 2.994575-1.232143 3.244123-1.848214 2.745027-1.848214 2.994575-1.232143 3.244123-1.232143 3.119349-1.848214 2.994575-1.355357 2.994575-.123215-3.743219-1.108928-3.618444-.246429-3.743219-.985714-3.743219-.246429-3.743219-.739285-3.743219-.369643-3.743218-.739286-3.743219-.492857-3.743219"/><path d="m243 515-3.337838.694737-3.209459 1.273684-3.20946 1.157895-3.081081 1.389473-3.209459 1.273685-2.952703 1.157894 3.466216 1.157895 3.851352.810526 3.851351.694737 3.97973.11579 3.722973 1.273684"/><path d="m187.125 514 2.875 1.989796 3.125 1.326531 3.125 1.459183 3.25 1.061225 3.125 1.459183 3.375 1.326531-4.125.530612-3.75.795919-3.625 1.061224-3.625 1.591837-3.875.397959"/><path d="m226 232-.630252 3.316699-.882353 3.316698-1.134454 3.316699-.378151 3.439539-.630252 3.43954-.756303 3.316698-.882353 3.43954-1.008403 3.316698-.378151 3.43954-1.386555 3.193858-.504202 3.439539-.756302 3.439539-.504202 3.43954-1.386554 3.193858-.756303 3.439539-.882353 3.316699-.756302 3.316698-.252101 3.56238-1.134454 3.316699"/><path d="m247 233-1.115385 3.257851-1.487179 3.016529-1.611111 3.016529-.619658 3.499174-1.858975 2.895867-1.115384 3.257852-1.363248 3.13719-.619658 3.378512-1.611111 3.016529-.867522 3.378512-1.982906 2.895868-.619658 3.378513-1.735043 3.016529-.743589 3.378512-1.363248 3.016529-1.735043 3.13719-.74359 3.257851-1.115384 3.257851-1.363248 3.137191-1.363248 3.13719-1.735043 3.016529-1.115384 3.257851-1.115385 3.257851"/></g></g></svg>